<svg width="29" height="28" viewBox="0 0 29 28" fill="none" xmlns="http://www.w3.org/2000/svg">
<path d="M9.86967 8.85142C9.86967 8.85142 4.41095 9.45603 0.769494 9.86025C0.44128 9.89998 0.151069 10.1194 0.0422405 10.4528C-0.0665885 10.7862 0.0422403 11.1334 0.284082 11.3528C2.98926 13.8213 7.05394 17.518 7.05394 17.518C7.05048 17.518 5.93801 22.8955 5.19866 26.4834C5.13647 26.8082 5.25394 27.152 5.53724 27.3575C5.81881 27.5631 6.18158 27.5665 6.46661 27.4059C9.65201 25.5955 14.4232 22.8731 14.4232 22.8731C14.4232 22.8731 19.1961 25.5955 22.3764 27.4076C22.6666 27.5665 23.0293 27.5631 23.3109 27.3575C23.5942 27.152 23.7117 26.8082 23.6478 26.4852C22.9084 22.8955 21.7977 17.518 21.7977 17.518C21.7977 17.518 25.8623 13.8213 28.5675 11.3579C28.8094 11.1316 28.9165 10.7844 28.8094 10.4528C28.7023 10.1211 28.4121 9.90171 28.0838 9.86371C24.4424 9.45603 18.9819 8.85142 18.9819 8.85142C18.9819 8.85142 16.719 3.84529 15.2109 0.507869C15.0693 0.209021 14.7722 0 14.4232 0C14.0743 0 13.7754 0.210748 13.6407 0.507869C12.1309 3.84529 9.86967 8.85142 9.86967 8.85142Z" fill="#FED302"/>
</svg>
