<svg width="108" height="76" viewBox="0 0 108 76" fill="none" xmlns="http://www.w3.org/2000/svg">
<path d="M105.653 11.9584C104.413 7.28992 100.76 3.61281 96.1209 2.36477C87.7134 0.0976571 53.9998 0.0976562 53.9998 0.0976562C53.9998 0.0976562 20.2861 0.0976571 11.8781 2.365C7.23961 3.61305 3.58641 7.28992 2.34656 11.9587C0.0937498 20.4208 0.09375 38.077 0.09375 38.077C0.09375 38.077 0.0937498 55.7334 2.34656 64.1952C3.58641 68.864 7.23961 72.3878 11.8781 73.6361C20.2861 75.9032 53.9998 75.9032 53.9998 75.9032C53.9998 75.9032 87.7134 75.9032 96.1209 73.6359C100.76 72.3876 104.413 68.8637 105.653 64.195C107.906 55.7331 107.906 38.0767 107.906 38.0767C107.906 38.0767 107.906 20.4208 105.653 11.9584Z" fill="#FF0000"/>
</svg>
