<svg width="200" height="200" viewBox="0 0 200 200" fill="none" xmlns="http://www.w3.org/2000/svg">
<rect width="200" height="200" rx="10" fill="#0C2E16"/>
<path d="M140.15 155.002C140.553 155.002 140.952 154.918 141.32 154.756C141.689 154.594 142.021 154.356 142.293 154.059C142.565 153.762 142.772 153.411 142.902 153.03C143.031 152.648 143.079 152.243 143.044 151.842C142.259 143.502 138.391 135.755 132.196 130.116C126.001 124.477 117.926 121.352 109.549 121.352C101.172 121.352 93.0966 124.477 86.902 130.116C80.7073 135.755 76.8392 143.502 76.0543 151.842C76.0187 152.243 76.0672 152.648 76.1965 153.03C76.3258 153.411 76.5331 153.762 76.8053 154.059C77.0775 154.356 77.4086 154.594 77.7776 154.756C78.1465 154.918 78.5452 155.002 78.9482 155.002H140.15Z" fill="#00B75F"/>
<path d="M42.2661 84.134L81.4375 144.43L96.9494 134.352L57.7779 74.0566L42.2661 84.134Z" fill="#00B75F"/>
<path d="M57.4492 76.4414L44.5706 84.8081L39.1685 76.4929C38.0674 74.785 37.6883 72.7102 38.1143 70.7233C38.5403 68.7363 39.7368 66.9993 41.4413 65.893C43.1449 64.7863 45.2177 64.3999 47.2056 64.8184C49.1936 65.237 50.9346 66.4265 52.0472 68.1262L57.4492 76.4414Z" fill="#FFB666"/>
<path d="M45.5047 89.5267L61.3848 79.2101C63.101 78.0952 63.5884 75.8002 62.4735 74.084C61.3585 72.3678 59.0635 71.8804 57.3473 72.9954L41.4673 83.3119C39.7511 84.4268 39.2637 86.7219 40.3786 88.4381C41.4935 90.1542 43.7886 90.6416 45.5047 89.5267Z" fill="#0574A0"/>
<path d="M53.5255 75.4621L51.1824 71.8554L55.9244 68.7747C56.4031 68.4637 56.9856 68.3557 57.544 68.4742C58.1023 68.5928 58.5907 68.9283 58.9016 69.407C59.2126 69.8856 59.3206 70.4682 59.2021 71.0265C59.0835 71.5849 58.748 72.0732 58.2693 72.3842L53.5273 75.4648L53.5255 75.4621Z" fill="#FFB666"/>
<path d="M126.854 130.762H92.25V144.53H126.854V130.762Z" fill="#0574A0"/>
<path d="M107.086 143.112L98.9236 128.972C98.6743 128.54 98.5431 128.051 98.543 127.552C98.5429 127.054 98.674 126.564 98.9231 126.132C99.1722 125.7 99.5305 125.342 99.9621 125.092C100.394 124.843 100.883 124.711 101.382 124.711H117.711C118.209 124.711 118.699 124.843 119.13 125.092C119.562 125.342 119.92 125.7 120.169 126.132C120.419 126.564 120.55 127.054 120.55 127.552C120.549 128.051 120.418 128.54 120.169 128.972L112.006 143.112C111.757 143.544 111.398 143.903 110.966 144.152C110.535 144.401 110.045 144.532 109.546 144.532C109.048 144.532 108.558 144.401 108.126 144.152C107.694 143.903 107.336 143.544 107.086 143.112Z" fill="#FF9D33"/>
<path d="M88.2117 50.5922L121.759 90.5725C120.037 92.0177 118.047 93.1095 115.902 93.7856C113.758 94.4617 111.502 94.7088 109.262 94.5128C107.022 94.3169 104.843 93.6817 102.849 92.6435C100.854 91.6054 99.084 90.1846 97.6388 88.4622L86.0929 74.7023C83.1742 71.2239 81.7568 66.7285 82.1525 62.2051C82.5483 57.6817 84.7247 53.5007 88.2031 50.582L88.2117 50.5922Z" fill="#FCFCEE"/>
<path d="M115.225 46.5054L110.677 98.4974C108.437 98.3014 106.258 97.6662 104.263 96.6281C102.269 95.5899 100.499 94.1691 99.0536 92.4468C96.1349 88.9684 94.7175 84.473 95.1133 79.9496L96.6788 62.0556C97.0745 57.5322 99.251 53.3512 102.729 50.4325C106.208 47.5138 110.703 46.0964 115.227 46.4922L115.225 46.5054Z" fill="#FCFCEE"/>
<path d="M138.951 79.337L125.191 90.883C123.469 92.3282 121.479 93.42 119.335 94.0961C117.19 94.7722 114.934 95.0193 112.694 94.8233C110.454 94.6274 108.275 93.9922 106.281 92.954C104.286 91.9159 102.516 90.4951 101.071 88.7728L141.061 55.2168C143.98 58.6952 145.397 63.1905 145.002 67.714C144.606 72.2374 142.43 76.4183 138.951 79.337Z" fill="#FCFCEE"/>
<path d="M130.722 65.0538L129.156 82.9478C128.761 87.4712 126.584 91.6522 123.106 94.5709C119.627 97.4896 115.132 98.907 110.609 98.5112L115.159 46.4961C117.4 46.6921 119.58 47.3277 121.575 48.3666C123.57 49.4054 125.34 50.8271 126.786 52.5505C128.231 54.2739 129.322 56.2652 129.998 58.4105C130.673 60.5559 130.919 62.8133 130.722 65.0538Z" fill="#FCFCEE"/>
<path d="M72.1328 101.906L111.089 105.314L109.596 122.37L87.6962 120.454C83.1728 120.058 78.9919 117.882 76.0732 114.403C73.1544 110.925 71.7371 106.43 72.1328 101.906Z" fill="#FCFCEE"/>
<path d="M64.668 84.5703L103.624 87.9785L102.132 105.034L80.2314 103.118C75.708 102.722 71.527 100.546 68.6083 97.0675C65.6896 93.5891 64.2722 89.0937 64.668 84.5703Z" fill="#FCFCEE"/>
<path d="M60.1055 67.4844L99.0613 70.8926L97.5691 87.9482L75.6689 86.0322C71.1455 85.6364 66.9645 83.4599 64.0458 79.9816C61.1271 76.5032 59.7097 72.0078 60.1055 67.4844Z" fill="#FCFCEE"/>
<path d="M129.429 124.105L107.529 122.189L109.021 105.134L147.977 108.542C147.581 113.065 145.404 117.246 141.926 120.165C138.448 123.084 133.952 124.501 129.429 124.105Z" fill="#FCFCEE"/>
<path d="M139.791 108.34L117.891 106.424L119.383 89.3685L158.336 92.7764C157.94 97.2993 155.764 101.48 152.287 104.398C148.809 107.317 144.314 108.735 139.791 108.34Z" fill="#FCFCEE"/>
<path d="M147.253 92.2969L125.353 90.3809L126.845 73.3253L165.801 76.7335C165.405 81.2569 163.229 85.4378 159.75 88.3565C156.272 91.2753 151.776 92.6926 147.253 92.2969Z" fill="#FCFCEE"/>
<path d="M109.705 136.916L104.902 136.497C101.67 136.213 98.5334 135.253 95.6957 133.68C92.858 132.106 90.3823 129.955 88.4288 127.364C86.4754 124.773 85.0876 121.802 84.3555 118.641C83.6234 115.48 83.5631 112.2 84.1787 109.015L88.5994 86.1226C89.6866 80.4956 92.8201 75.4709 97.395 72.0191C101.97 68.5672 107.662 66.9329 113.371 67.4318C119.08 67.9311 124.402 70.5283 128.308 74.7217C132.215 78.915 134.429 84.4072 134.523 90.1375L134.902 113.452C134.955 116.697 134.326 119.918 133.055 122.905C131.784 125.891 129.9 128.578 127.524 130.79C125.149 133.002 122.335 134.69 119.265 135.746C116.196 136.801 112.939 137.2 109.705 136.916Z" fill="#FFB666"/>
<path d="M104.66 84.9717L97.9361 84.3834C96.7978 84.2839 95.7943 85.1252 95.6948 86.2626C95.5953 87.4 96.4374 88.4028 97.5758 88.5024L104.299 89.0906C105.438 89.1902 106.441 88.3489 106.541 87.2115C106.64 86.0741 105.798 85.0713 104.66 84.9717Z" fill="#FCFCEE"/>
<path d="M123.589 86.6279L116.866 86.0397C115.727 85.9401 114.724 86.7814 114.625 87.9188C114.525 89.0562 115.367 90.059 116.505 90.1586L123.229 90.7469C124.367 90.8464 125.371 90.0051 125.47 88.8677C125.57 87.7303 124.728 86.7275 123.589 86.6279Z" fill="#FCFCEE"/>
<path d="M115.811 115.102L115.04 123.944C114.945 125.027 114.581 126.07 113.982 126.978C113.331 127.977 112.422 128.781 111.35 129.303C110.278 129.826 109.085 130.048 107.897 129.946C106.709 129.843 105.571 129.42 104.605 128.722C103.638 128.023 102.88 127.076 102.41 125.98C101.979 124.982 101.805 123.892 101.901 122.81L102.672 113.965L115.811 115.102Z" fill="#1B1B1B"/>
<path d="M126.246 119.566L91.6146 116.537C91.8361 114.005 93.0539 111.666 95.0002 110.033C96.9466 108.4 99.4619 107.607 101.993 107.828L117.538 109.188C118.791 109.298 120.01 109.653 121.126 110.234C122.242 110.815 123.233 111.61 124.041 112.574C124.85 113.537 125.461 114.651 125.839 115.851C126.217 117.051 126.356 118.313 126.246 119.566Z" fill="#FCFCEE"/>
<path d="M123.491 76.6488L101.786 74.7499C101.294 74.7068 100.86 75.071 100.817 75.5633C100.773 76.0556 101.138 76.4896 101.63 76.5326L123.335 78.4315C123.827 78.4746 124.261 78.1104 124.304 77.6182C124.347 77.1259 123.983 76.6918 123.491 76.6488Z" fill="#FF9D33"/>
<path d="M125.254 81.2448L99.6878 78.9438C99.1936 78.8993 98.7569 79.2639 98.7124 79.7581C98.668 80.2522 99.0325 80.6889 99.5267 80.7334L125.093 83.0344C125.587 83.0788 126.024 82.7143 126.068 82.2201C126.113 81.7259 125.748 81.2893 125.254 81.2448Z" fill="#FF9D33"/>
<path d="M136.758 89.1234C136.425 82.992 133.891 77.1865 129.621 72.7739C125.351 68.3613 119.632 65.638 113.515 65.1043C107.398 64.5707 101.293 66.2626 96.3235 69.8692C91.3539 73.4758 87.8528 78.7547 86.4635 84.7359C84.9209 84.799 83.4538 85.4204 82.3352 86.4845C81.2166 87.5486 80.5228 88.9829 80.3829 90.5205L79.5813 99.6813C79.4836 100.524 79.5559 101.378 79.7939 102.193C80.032 103.007 80.4309 103.766 80.9672 104.423C81.5035 105.081 82.1662 105.624 82.9161 106.021C83.6661 106.418 84.488 106.661 85.3334 106.735C86.1787 106.809 87.0303 106.712 87.8377 106.451C88.6451 106.19 89.392 105.77 90.0342 105.215C90.6764 104.661 91.2008 103.983 91.5765 103.222C91.9522 102.461 92.1715 101.633 92.2214 100.786L93.0231 91.6248C93.1112 90.6316 92.963 89.6317 92.5907 88.7067C92.2184 87.7817 91.6325 86.9579 90.8809 86.3026C91.9098 81.2906 94.7465 76.8321 98.8507 73.7768C102.955 70.7215 108.04 69.2828 113.136 69.735C118.233 70.1871 122.985 72.4984 126.487 76.2284C129.99 79.9585 131.997 84.8467 132.128 89.9616C131.299 90.4801 130.602 91.1837 130.091 92.0171C129.58 92.8506 129.27 93.7911 129.184 94.7649L128.382 103.926C128.266 105.312 128.607 106.699 129.353 107.873C130.099 109.047 131.209 109.945 132.514 110.429L132.214 113.838C132.109 115.062 131.764 116.252 131.198 117.342C130.633 118.432 129.858 119.4 128.919 120.191C127.979 120.981 126.893 121.579 125.722 121.95C124.551 122.32 123.319 122.456 122.095 122.35L121.533 122.3C121.223 121.756 120.748 121.325 120.175 121.071C119.603 120.816 118.965 120.751 118.353 120.885C117.741 121.019 117.188 121.345 116.775 121.815C116.362 122.286 116.109 122.876 116.055 123.5C116.001 124.124 116.147 124.748 116.473 125.283C116.799 125.818 117.288 126.234 117.867 126.472C118.446 126.709 119.087 126.756 119.694 126.604C120.302 126.451 120.845 126.109 121.244 125.627L121.806 125.677C125.151 125.966 128.475 124.916 131.047 122.757C133.619 120.599 135.231 117.509 135.527 114.164L135.823 110.755C137.192 110.506 138.442 109.815 139.381 108.788C140.32 107.762 140.896 106.456 141.022 105.07L141.824 95.9092C141.959 94.3537 141.517 92.803 140.583 91.5519C139.649 90.3008 138.288 89.4365 136.758 89.1234Z" fill="#1B1B1B"/>
<path d="M113.983 126.968C113.332 127.967 112.422 128.771 111.351 129.294C110.279 129.816 109.085 130.038 107.897 129.936C106.709 129.833 105.572 129.41 104.605 128.712C103.639 128.013 102.88 127.066 102.41 125.97C104.126 124.689 106.253 124.083 108.386 124.267C110.52 124.451 112.511 125.412 113.983 126.968Z" fill="#FF6CA1"/>
<path d="M100.696 91.5793L100.693 91.579C98.8625 91.4189 97.2491 92.7727 97.089 94.6028L96.7536 98.4367C96.5935 100.267 97.9473 101.88 99.7774 102.04L99.7807 102.041C101.611 102.201 103.224 100.847 103.384 99.0168L103.72 95.1829C103.88 93.3528 102.526 91.7394 100.696 91.5793Z" fill="#1B1B1B"/>
<path d="M122.001 97.6938C122.125 96.3233 121.114 95.1123 119.743 94.989C118.373 94.8656 117.162 95.8766 117.038 97.2471L116.78 100.114C116.657 101.485 117.668 102.696 119.038 102.819C120.409 102.943 121.62 101.932 121.743 100.561L122.001 97.6938Z" fill="#1B1B1B"/>
</svg>
