<svg width="131" height="110" viewBox="0 0 131 110" fill="none" xmlns="http://www.w3.org/2000/svg">
<path d="M105.15 110.002C105.553 110.002 105.952 109.918 106.32 109.756C106.689 109.594 107.021 109.356 107.293 109.059C107.565 108.762 107.772 108.411 107.902 108.03C108.031 107.648 108.079 107.243 108.044 106.842C107.259 98.5019 103.391 90.7547 97.1961 85.1157C91.0014 79.4767 82.9259 76.3516 74.549 76.3516C66.1722 76.3516 58.0966 79.4767 51.902 85.1157C45.7073 90.7547 41.8392 98.5019 41.0543 106.842C41.0187 107.243 41.0672 107.648 41.1965 108.03C41.3258 108.411 41.5331 108.762 41.8053 109.059C42.0775 109.356 42.4086 109.594 42.7776 109.756C43.1465 109.918 43.5452 110.002 43.9482 110.002H105.15Z" fill="#00B75F"/>
<path d="M7.26606 39.134L46.4375 99.4297L61.9494 89.3523L22.7779 29.0566L7.26606 39.134Z" fill="#00B75F"/>
<path d="M22.4492 31.4414L9.57056 39.8081L4.16854 31.4929C3.06739 29.785 2.68829 27.7102 3.11432 25.7233C3.54035 23.7363 4.73676 21.9993 6.44132 20.893C8.1449 19.7863 10.2177 19.3999 12.2056 19.8184C14.1936 20.237 15.9346 21.4265 17.0472 23.1262L22.4492 31.4414Z" fill="#FFB666"/>
<path d="M10.5047 44.5267L26.3848 34.2101C28.101 33.0952 28.5884 30.8002 27.4735 29.084C26.3585 27.3678 24.0635 26.8804 22.3473 27.9954L6.46727 38.3119C4.7511 39.4268 4.26369 41.7219 5.37861 43.4381C6.49353 45.1542 8.78857 45.6416 10.5047 44.5267Z" fill="#0574A0"/>
<path d="M18.5255 30.4621L16.1824 26.8554L20.9244 23.7747C21.4031 23.4637 21.9856 23.3557 22.544 23.4742C23.1023 23.5928 23.5907 23.9283 23.9016 24.407C24.2126 24.8856 24.3206 25.4682 24.2021 26.0265C24.0835 26.5849 23.748 27.0732 23.2693 27.3842L18.5273 30.4648L18.5255 30.4621Z" fill="#FFB666"/>
<path d="M91.8541 85.7617H57.25V99.5295H91.8541V85.7617Z" fill="#0574A0"/>
<path d="M72.0864 98.1123L63.9236 83.972C63.6743 83.5403 63.5431 83.0506 63.543 82.5521C63.5429 82.0537 63.674 81.5639 63.9231 81.1321C64.1722 80.7004 64.5305 80.3417 64.9621 80.0923C65.3936 79.8428 65.8832 79.7113 66.3817 79.7109H82.7108C83.2093 79.7113 83.6989 79.8428 84.1305 80.0923C84.5621 80.3417 84.9204 80.7004 85.1695 81.1321C85.4186 81.5639 85.5497 82.0537 85.5496 82.5521C85.5495 83.0506 85.4182 83.5403 85.169 83.972L77.0061 98.1123C76.7567 98.5441 76.3982 98.9025 75.9664 99.1518C75.5346 99.401 75.0448 99.5322 74.5463 99.5322C74.0477 99.5322 73.5579 99.401 73.1262 99.1518C72.6944 98.9025 72.3358 98.5441 72.0864 98.1123Z" fill="#FF9D33"/>
<path d="M53.2117 5.59222L86.7591 45.5725C85.0368 47.0177 83.0467 48.1095 80.9024 48.7856C78.7581 49.4617 76.5017 49.7088 74.2619 49.5128C72.0221 49.3169 69.8429 48.6817 67.8486 47.6435C65.8543 46.6054 64.084 45.1846 62.6388 43.4622L51.0929 29.7023C48.1742 26.2239 46.7568 21.7285 47.1525 17.2051C47.5483 12.6817 49.7247 8.50074 53.2031 5.58203L53.2117 5.59222Z" fill="#FCFCEE"/>
<path d="M80.2254 1.50544L75.6767 53.4974C73.4369 53.3014 71.2577 52.6662 69.2634 51.6281C67.2691 50.5899 65.4988 49.1691 64.0536 47.4468C61.1349 43.9684 59.7175 39.473 60.1133 34.9496L61.6788 17.0556C62.0745 12.5322 64.251 8.35125 67.7294 5.43254C71.2078 2.51383 75.7031 1.09644 80.2266 1.49219L80.2254 1.50544Z" fill="#FCFCEE"/>
<path d="M103.951 34.337L90.1912 45.883C88.4689 47.3282 86.4788 48.42 84.3345 49.0961C82.1902 49.7722 79.9338 50.0193 77.694 49.8233C75.4543 49.6274 73.275 48.9922 71.2807 47.954C69.2864 46.9159 67.5161 45.4951 66.0709 43.7728L106.061 10.2168C108.98 13.6952 110.397 18.1905 110.002 22.714C109.606 27.2374 107.43 31.4183 103.951 34.337Z" fill="#FCFCEE"/>
<path d="M95.7218 20.0538L94.1563 37.9478C93.7605 42.4712 91.5841 46.6522 88.1057 49.5709C84.6273 52.4896 80.1319 53.907 75.6085 53.5112L80.1592 1.49611C82.3998 1.69214 84.5799 2.32773 86.5748 3.36657C88.5696 4.40541 90.3403 5.82714 91.7855 7.55053C93.2308 9.27391 94.3223 11.2652 94.9977 13.4105C95.6731 15.5559 95.9191 17.8133 95.7218 20.0538Z" fill="#FCFCEE"/>
<path d="M37.1328 56.9062L76.0886 60.3144L74.5965 77.3701L52.6962 75.454C48.1728 75.0583 43.9919 72.8818 41.0732 69.4034C38.1544 65.9251 36.7371 61.4297 37.1328 56.9062Z" fill="#FCFCEE"/>
<path d="M29.668 39.5703L68.6238 42.9785L67.1316 60.0341L45.2314 58.1181C40.708 57.7223 36.527 55.5459 33.6083 52.0675C30.6896 48.5891 29.2722 44.0937 29.668 39.5703Z" fill="#FCFCEE"/>
<path d="M25.1055 22.4844L64.0613 25.8926L62.5691 42.9482L40.6689 41.0322C36.1455 40.6364 31.9645 38.4599 29.0458 34.9816C26.1271 31.5032 24.7097 27.0078 25.1055 22.4844Z" fill="#FCFCEE"/>
<path d="M94.4288 79.1055L72.5285 77.1895L74.0207 60.1339L112.977 63.542C112.581 68.0655 110.404 72.2464 106.926 75.1651C103.448 78.0838 98.9522 79.5012 94.4288 79.1055Z" fill="#FCFCEE"/>
<path d="M104.791 63.3401L82.8912 61.4241L84.3834 44.3685L123.336 47.7764C122.94 52.2993 120.764 56.4798 117.287 59.3984C113.809 62.3171 109.314 63.735 104.791 63.3401Z" fill="#FCFCEE"/>
<path d="M112.253 47.2969L90.3528 45.3809L91.8449 28.3253L130.801 31.7335C130.405 36.2569 128.229 40.4378 124.75 43.3565C121.272 46.2753 116.776 47.6926 112.253 47.2969Z" fill="#FCFCEE"/>
<path d="M74.7052 91.916L69.9019 91.4969C66.6698 91.2126 63.5334 90.2528 60.6957 88.6796C57.858 87.1063 55.3823 84.9548 53.4288 82.3641C51.4754 79.7735 50.0876 76.8015 49.3555 73.6406C48.6234 70.4797 48.5631 67.2002 49.1787 64.0145L53.5994 41.1226C54.6866 35.4956 57.8201 30.4709 62.395 27.0191C66.9699 23.5672 72.6615 21.9329 78.3708 22.4318C84.0801 22.9311 89.4018 25.5283 93.3083 29.7217C97.2148 33.915 99.4289 39.4072 99.5231 45.1375L99.9023 68.4519C99.9553 71.6974 99.3259 74.9179 98.0548 77.9046C96.7838 80.8913 94.8995 83.5778 92.5241 85.7899C90.1486 88.0019 87.3349 89.6903 84.2653 90.7457C81.1958 91.801 77.9387 92.1997 74.7052 91.916Z" fill="#FFB666"/>
<path d="M69.6596 39.9717L62.9361 39.3834C61.7978 39.2839 60.7943 40.1252 60.6948 41.2626C60.5953 42.4 61.4374 43.4028 62.5758 43.5024L69.2993 44.0906C70.4376 44.1902 71.441 43.3489 71.5406 42.2115C71.6401 41.0741 70.7979 40.0713 69.6596 39.9717Z" fill="#FCFCEE"/>
<path d="M88.5893 41.6279L81.8658 41.0397C80.7275 40.9401 79.724 41.7814 79.6245 42.9188C79.525 44.0562 80.3671 45.059 81.5054 45.1586L88.2289 45.7469C89.3673 45.8464 90.3707 45.0051 90.4702 43.8677C90.5698 42.7303 89.7276 41.7275 88.5893 41.6279Z" fill="#FCFCEE"/>
<path d="M80.8115 70.1025L80.0398 78.9439C79.9449 80.0274 79.5814 81.07 78.982 81.9775C78.3314 82.9768 77.4217 83.7807 76.35 84.3034C75.2783 84.8261 74.0848 85.0481 72.8968 84.9457C71.7088 84.8432 70.571 84.4202 69.6046 83.7217C68.6382 83.0232 67.8795 82.0755 67.4096 80.9796C66.9794 79.9816 66.8045 78.8922 66.9007 77.8096L67.6724 68.9648L80.8115 70.1025Z" fill="#1B1B1B"/>
<path d="M91.2461 74.5664L56.6146 71.5365C56.8361 69.0055 58.0539 66.666 60.0002 65.0329C61.9466 63.3997 64.4619 62.6066 66.993 62.828L82.5376 64.188C83.7909 64.2977 85.0102 64.6531 86.1262 65.234C87.2421 65.8149 88.2326 66.6099 89.0413 67.5736C89.8499 68.5373 90.4609 69.6509 90.8392 70.8507C91.2175 72.0506 91.3557 73.3131 91.2461 74.5664Z" fill="#FCFCEE"/>
<path d="M88.4906 31.6488L66.7859 29.7499C66.2936 29.7068 65.8596 30.071 65.8165 30.5633C65.7735 31.0556 66.1376 31.4896 66.6299 31.5326L88.3347 33.4315C88.827 33.4746 89.261 33.1104 89.304 32.6182C89.3471 32.1259 88.9829 31.6918 88.4906 31.6488Z" fill="#FF9D33"/>
<path d="M90.2541 36.2448L64.6878 33.9438C64.1936 33.8993 63.7569 34.2639 63.7124 34.7581C63.668 35.2522 64.0325 35.6889 64.5267 35.7334L90.0931 38.0344C90.5873 38.0788 91.0239 37.7143 91.0684 37.2201C91.1129 36.7259 90.7483 36.2893 90.2541 36.2448Z" fill="#FF9D33"/>
<path d="M101.758 44.1234C101.425 37.992 98.8913 32.1865 94.6212 27.7739C90.3511 23.3613 84.6319 20.638 78.5147 20.1043C72.3975 19.5707 66.2932 21.2626 61.3235 24.8692C56.3539 28.4758 52.8528 33.7547 51.4635 39.7359C49.9209 39.799 48.4538 40.4204 47.3352 41.4845C46.2166 42.5486 45.5228 43.9829 45.3829 45.5205L44.5813 54.6813C44.4836 55.5242 44.5559 56.3781 44.7939 57.1926C45.032 58.0071 45.4309 58.7655 45.9672 59.4232C46.5035 60.0808 47.1662 60.6242 47.9161 61.0212C48.6661 61.4183 49.488 61.6609 50.3334 61.7347C51.1787 61.8086 52.0303 61.7122 52.8377 61.4512C53.6451 61.1902 54.392 60.77 55.0342 60.2153C55.6764 59.6607 56.2008 58.9829 56.5765 58.222C56.9522 57.4612 57.1715 56.6327 57.2214 55.7856L58.0231 46.6248C58.1112 45.6316 57.963 44.6317 57.5907 43.7067C57.2184 42.7817 56.6325 41.9579 55.8809 41.3026C56.9098 36.2906 59.7465 31.8321 63.8507 28.7768C67.955 25.7215 73.0398 24.2828 78.1363 24.735C83.2329 25.1871 87.9851 27.4984 91.4873 31.2284C94.9896 34.9585 96.9973 39.8467 97.1277 44.9616C96.299 45.4801 95.6018 46.1837 95.091 47.0171C94.5802 47.8506 94.2697 48.7911 94.1839 49.7649L93.3823 58.9257C93.2657 60.3122 93.6065 61.6986 94.3526 62.873C95.0987 64.0474 96.209 64.9451 97.5136 65.4287L97.2142 68.8382C97.1091 70.0617 96.764 71.2524 96.1985 72.3425C95.633 73.4325 94.8582 74.4004 93.9185 75.1909C92.9788 75.9814 91.8926 76.579 90.7219 76.9495C89.5511 77.32 88.3188 77.4563 87.0954 77.3504L86.5333 77.3005C86.2233 76.7563 85.7476 76.3255 85.1755 76.0708C84.6033 75.8162 83.9648 75.751 83.3531 75.885C82.7413 76.0189 82.1884 76.3448 81.7749 76.8152C81.3615 77.2855 81.1093 77.8757 81.055 78.4996C81.0007 79.1235 81.1473 79.7484 81.4732 80.2831C81.7992 80.8178 82.2876 81.2343 82.867 81.4719C83.4464 81.7094 84.0866 81.7555 84.6941 81.6035C85.3016 81.4515 85.8446 81.1093 86.2439 80.6268L86.8061 80.6767C90.1514 80.9656 93.4747 79.9157 96.047 77.7575C98.6193 75.5992 100.231 72.5089 100.527 69.1642L100.823 65.7547C102.192 65.5058 103.442 64.8152 104.381 63.7885C105.32 62.7618 105.896 61.4556 106.022 60.0699L106.824 50.9092C106.959 49.3537 106.517 47.803 105.583 46.5519C104.649 45.3008 103.288 44.4365 101.758 44.1234Z" fill="#1B1B1B"/>
<path d="M78.9825 81.9678C78.3319 82.967 77.4222 83.7709 76.3506 84.2936C75.2789 84.8164 74.0854 85.0384 72.8974 84.9359C71.7094 84.8335 70.5715 84.4104 69.6051 83.712C68.6387 83.0135 67.8801 82.0658 67.4102 80.9699C69.1261 79.6888 71.2528 79.0827 73.3862 79.2667C75.5197 79.4507 77.5113 80.4119 78.9825 81.9678Z" fill="#FF6CA1"/>
<path d="M65.6959 46.5793L65.6926 46.579C63.8625 46.4189 62.2491 47.7727 62.089 49.6028L61.7536 53.4367C61.5935 55.2668 62.9473 56.8802 64.7774 57.0403L64.7807 57.0406C66.6108 57.2007 68.2242 55.8469 68.3843 54.0168L68.7197 50.1829C68.8798 48.3528 67.526 46.7394 65.6959 46.5793Z" fill="#1B1B1B"/>
<path d="M87.0013 52.6938C87.1247 51.3233 86.1137 50.1123 84.7432 49.989C83.3727 49.8656 82.1617 50.8766 82.0384 52.2471L81.7803 55.1144C81.657 56.4849 82.668 57.6959 84.0385 57.8192C85.4089 57.9425 86.6199 56.9315 86.7433 55.5611L87.0013 52.6938Z" fill="#1B1B1B"/>
</svg>
