<svg width="200" height="200" viewBox="0 0 200 200" fill="none" xmlns="http://www.w3.org/2000/svg">
<rect width="200" height="200" rx="10" fill="#0C2E16"/>
<g clip-path="url(#clip0_44_277)">
<path d="M123.089 166.665C123.392 166.665 123.692 166.602 123.97 166.48C124.247 166.358 124.496 166.179 124.701 165.956C124.906 165.732 125.062 165.468 125.159 165.181C125.256 164.893 125.292 164.589 125.265 164.287C124.672 158.02 121.763 152.199 117.106 147.963C112.45 143.727 106.381 141.379 100.086 141.379C93.7908 141.379 87.722 143.727 83.0657 147.963C78.4094 152.199 75.5003 158.02 74.9072 164.287C74.8797 164.589 74.9155 164.894 75.0124 165.181C75.1093 165.469 75.2651 165.733 75.4699 165.956C75.6746 166.18 75.9238 166.359 76.2015 166.481C76.4792 166.603 76.7794 166.666 77.0827 166.665H123.089Z" fill="#00B75F"/>
<path d="M145.69 112.524L107.469 150.746L117.302 160.579L155.523 122.358L145.69 112.524Z" fill="#00B75F"/>
<path d="M158.983 109.065C160.065 110.148 160.674 111.616 160.674 113.146C160.674 114.677 160.065 116.145 158.983 117.227L153.714 122.497L145.552 114.335L150.821 109.065C151.903 107.983 153.371 107.375 154.902 107.375C156.433 107.375 157.901 107.983 158.983 109.065Z" fill="#FFB666"/>
<path d="M156.235 121.884L146.169 111.817C145.081 110.73 143.317 110.73 142.229 111.817C141.141 112.905 141.141 114.669 142.229 115.757L152.296 125.823C153.383 126.911 155.147 126.911 156.235 125.823C157.323 124.736 157.323 122.972 156.235 121.884Z" fill="#0574A0"/>
<path d="M145.585 108.926C145.735 108.776 145.914 108.657 146.11 108.576C146.306 108.494 146.517 108.452 146.729 108.452C146.942 108.452 147.152 108.494 147.348 108.576C147.545 108.657 147.723 108.776 147.873 108.926L150.879 111.932L148.591 114.22L145.585 111.214C145.282 110.911 145.111 110.499 145.111 110.07C145.111 109.641 145.282 109.23 145.585 108.926Z" fill="#FFB666"/>
<path d="M44.6493 122.36L82.8708 160.582L92.7039 150.749L54.4823 112.527L44.6493 122.36Z" fill="#00B75F"/>
<path d="M54.6169 114.332L46.4549 122.494L41.1909 117.23C40.6539 116.694 40.2277 116.058 39.9367 115.358C39.6457 114.657 39.4957 113.906 39.4952 113.148C39.4947 112.389 39.6438 111.638 39.9338 110.937C40.2239 110.236 40.6493 109.599 41.1856 109.063C42.268 107.98 43.736 107.372 45.2667 107.372C46.7973 107.372 48.2653 107.98 49.3477 109.063L54.6169 114.332Z" fill="#FFB666"/>
<path d="M47.8776 125.821L57.944 115.755C59.0319 114.667 59.0319 112.903 57.944 111.815C56.8562 110.727 55.0923 110.727 54.0045 111.815L43.9381 121.882C42.8502 122.97 42.8502 124.733 43.9381 125.821C45.0259 126.909 46.7897 126.909 47.8776 125.821Z" fill="#0574A0"/>
<path d="M51.574 114.227L49.2859 111.939L52.2919 108.933C52.5953 108.629 53.0068 108.459 53.4359 108.459C53.865 108.459 54.2765 108.629 54.5799 108.933C54.8833 109.236 55.0538 109.647 55.0538 110.077C55.0538 110.506 54.8833 110.917 54.5799 111.221L51.574 114.227Z" fill="#FFB666"/>
<path d="M113.096 147.43H87.0818V158.798H113.096V147.43Z" fill="#0574A0"/>
<path d="M98.2384 157.73L92.1019 147.112C91.9146 146.787 91.8161 146.419 91.8162 146.044C91.8163 145.669 91.915 145.3 92.1025 144.975C92.29 144.651 92.5596 144.381 92.8843 144.193C93.209 144.006 93.5773 143.907 93.9523 143.906H106.225C106.6 143.907 106.969 144.006 107.293 144.193C107.618 144.381 107.888 144.651 108.075 144.975C108.263 145.3 108.361 145.669 108.362 146.044C108.362 146.419 108.263 146.787 108.076 147.112L101.937 157.73C101.749 158.054 101.48 158.324 101.155 158.511C100.831 158.698 100.462 158.797 100.088 158.797C99.7128 158.797 99.3446 158.698 99.0201 158.511C98.6955 158.324 98.4259 158.054 98.2384 157.73Z" fill="#FF9D33"/>
<path d="M80.1475 88.6946L107.891 116.438C105.477 118.851 102.203 120.208 98.7897 120.208C95.3762 120.208 92.1024 118.851 89.6887 116.438L80.1404 106.889C77.7267 104.476 76.3706 101.202 76.3706 97.7885C76.3706 94.3749 77.7267 91.1012 80.1404 88.6875L80.1475 88.6946Z" fill="white"/>
<path d="M100.109 83.8633V123.098C96.6978 123.098 93.4259 121.744 91.0126 119.333C88.5992 116.922 87.2417 113.651 87.2384 110.24V96.7365C87.2384 93.323 88.5944 90.0493 91.0082 87.6355C93.4219 85.2218 96.6956 83.8658 100.109 83.8658V83.8633Z" fill="white"/>
<path d="M120.028 106.898L110.479 116.446C109.284 117.641 107.865 118.589 106.304 119.236C104.742 119.883 103.069 120.216 101.378 120.216C99.6882 120.216 98.0145 119.883 96.453 119.236C94.8914 118.589 93.4726 117.641 92.2774 116.446L120.028 88.6959C121.223 89.8911 122.171 91.3099 122.818 92.8715C123.465 94.433 123.797 96.1067 123.797 97.7969C123.797 99.4871 123.465 101.161 122.818 102.722C122.171 104.284 121.223 105.703 120.028 106.898Z" fill="white"/>
<path d="M112.933 96.7354V110.239C112.933 113.652 111.577 116.926 109.163 119.34C106.75 121.753 103.476 123.109 100.062 123.109V83.8672C103.476 83.8672 106.75 85.2232 109.163 87.6369C111.577 90.0507 112.933 93.3244 112.933 96.7379V96.7354Z" fill="white"/>
<path d="M71.4685 128.18H100.866V141.05H84.3392C82.649 141.05 80.9754 140.717 79.4138 140.071C77.8523 139.424 76.4334 138.476 75.2383 137.281C74.0431 136.086 73.095 134.667 72.4482 133.105C71.8014 131.544 71.4685 129.87 71.4685 128.18Z" fill="white"/>
<path d="M64.7444 115.684H94.1393V128.554H77.6127C74.1991 128.554 70.9254 127.198 68.5117 124.785C66.098 122.371 64.7419 119.097 64.7419 115.684H64.7444Z" fill="white"/>
<path d="M60.2068 103.191H89.6041V116.062H73.0775C71.3873 116.062 69.7136 115.729 68.1521 115.082C66.5905 114.436 65.1717 113.488 63.9765 112.292C61.5628 109.879 60.2068 106.605 60.2068 103.191Z" fill="white"/>
<path d="M115.822 141.051H99.318V128.18H128.703C128.703 129.871 128.37 131.546 127.722 133.108C127.075 134.67 126.126 136.089 124.93 137.285C123.733 138.48 122.313 139.428 120.751 140.074C119.188 140.72 117.513 141.052 115.822 141.051Z" fill="white"/>
<path d="M122.559 128.555H106.02V115.684H135.429C135.429 119.097 134.073 122.371 131.66 124.785C129.246 127.199 125.972 128.555 122.559 128.555Z" fill="white"/>
<path d="M127.095 116.059H110.569V103.188H139.969C139.969 104.878 139.636 106.552 138.989 108.114C138.342 109.676 137.393 111.095 136.198 112.29C135.002 113.485 133.583 114.433 132.021 115.08C130.46 115.726 128.786 116.059 127.095 116.059Z" fill="white"/>
<path d="M101.901 151.936H98.2753C95.8357 151.935 93.4234 151.423 91.1945 150.431C88.9656 149.439 86.9699 147.99 85.3365 146.178C83.7031 144.366 82.4685 142.231 81.7126 139.912C80.9567 137.592 80.6964 135.14 80.9485 132.713L82.7615 115.279C83.2068 110.994 85.2243 107.026 88.4244 104.141C91.6244 101.256 95.78 99.66 100.088 99.6602C104.397 99.66 108.552 101.256 111.752 104.141C114.952 107.026 116.97 110.994 117.415 115.279L119.228 132.713C119.48 135.14 119.22 137.592 118.464 139.912C117.708 142.231 116.473 144.366 114.84 146.178C113.207 147.99 111.211 149.439 108.982 150.431C106.753 151.423 104.341 151.935 101.901 151.936Z" fill="#FFB666"/>
<path d="M95.4844 113.363H90.4106C89.5516 113.363 88.8552 114.059 88.8552 114.917C88.8552 115.776 89.5516 116.472 90.4106 116.472H95.4844C96.3434 116.472 97.0398 115.776 97.0398 114.917C97.0398 114.059 96.3434 113.363 95.4844 113.363Z" fill="#FCFCEE"/>
<path d="M109.762 113.363H104.688C103.829 113.363 103.133 114.059 103.133 114.917C103.133 115.776 103.829 116.472 104.688 116.472H109.762C110.621 116.472 111.317 115.776 111.317 114.917C111.317 114.059 110.621 113.363 109.762 113.363Z" fill="#FCFCEE"/>
<path d="M105.044 135.199V141.858C105.044 142.676 104.84 143.48 104.451 144.199C103.929 145.171 103.097 145.941 102.087 146.387C101.078 146.833 99.9484 146.929 98.878 146.66C97.8076 146.392 96.8575 145.773 96.1783 144.904C95.4992 144.034 95.1298 142.962 95.1287 141.858V135.199H105.044Z" fill="#1B1B1B"/>
<path d="M113.156 137.859H87.022C87.022 136.914 87.2083 135.977 87.5702 135.103C87.9321 134.23 88.4626 133.436 89.1313 132.767C89.8001 132.098 90.594 131.568 91.4678 131.206C92.3415 130.844 93.278 130.658 94.2238 130.658H105.954C107.864 130.658 109.696 131.416 111.047 132.767C112.397 134.118 113.156 135.949 113.156 137.859Z" fill="#FCFCEE"/>
<path d="M108.278 105.898H91.899C91.5275 105.898 91.2263 106.2 91.2263 106.571C91.2263 106.943 91.5275 107.244 91.899 107.244H108.278C108.65 107.244 108.951 106.943 108.951 106.571C108.951 106.2 108.65 105.898 108.278 105.898Z" fill="#FF9D33"/>
<path d="M109.697 108.961H90.4771C90.1056 108.961 89.8044 109.262 89.8044 109.634C89.8044 110.005 90.1056 110.306 90.4771 110.306H109.697C110.068 110.306 110.37 110.005 110.37 109.634C110.37 109.262 110.068 108.961 109.697 108.961Z" fill="#FF9D33"/>
<path d="M119.03 114.368C118.38 109.799 116.102 105.618 112.616 102.593C109.13 99.5678 104.67 97.9023 100.054 97.9023C95.4386 97.9023 90.9781 99.5678 87.4921 102.593C84.0061 105.618 81.7286 109.799 81.0781 114.368C79.9262 114.516 78.8675 115.078 78.0991 115.949C77.3308 116.82 76.9054 117.941 76.9021 119.102V126.014C76.9021 127.279 77.4048 128.493 78.2996 129.388C79.1943 130.282 80.4079 130.785 81.6733 130.785C82.9387 130.785 84.1523 130.282 85.047 129.388C85.9418 128.493 86.4445 127.279 86.4445 126.014V119.102C86.4427 118.354 86.265 117.617 85.9257 116.951C85.5864 116.285 85.0951 115.707 84.4915 115.266C84.9337 111.445 86.7666 107.919 89.6408 105.362C92.515 102.805 96.2297 101.395 100.077 101.401C103.924 101.406 107.634 102.827 110.501 105.392C113.368 107.958 115.191 111.488 115.622 115.311C115.036 115.755 114.56 116.327 114.232 116.985C113.904 117.643 113.733 118.367 113.731 119.102V126.014C113.735 127.06 114.081 128.076 114.717 128.907C115.353 129.737 116.243 130.336 117.252 130.612V133.186C117.25 135.046 116.509 136.83 115.193 138.146C113.878 139.462 112.094 140.202 110.233 140.205H109.808C109.541 139.816 109.157 139.524 108.712 139.369C108.266 139.215 107.783 139.207 107.333 139.346C106.883 139.486 106.49 139.766 106.21 140.146C105.931 140.525 105.78 140.984 105.78 141.455C105.78 141.926 105.931 142.385 106.21 142.765C106.49 143.144 106.883 143.424 107.333 143.564C107.783 143.704 108.266 143.696 108.712 143.541C109.157 143.387 109.541 143.094 109.808 142.705H110.233C112.757 142.703 115.177 141.699 116.962 139.914C118.746 138.129 119.75 135.71 119.753 133.186V130.62C120.762 130.343 121.652 129.744 122.288 128.914C122.924 128.083 123.27 127.067 123.274 126.021V119.102C123.268 117.931 122.833 116.802 122.051 115.929C121.269 115.057 120.194 114.502 119.03 114.368Z" fill="#1B1B1B"/>
<path d="M104.451 144.203C104.029 144.994 103.399 145.656 102.63 146.117C101.861 146.578 100.981 146.822 100.085 146.822C99.1878 146.822 98.3079 146.578 97.5389 146.117C96.7699 145.656 96.1407 144.994 95.7185 144.203C96.9215 143.134 98.475 142.543 100.085 142.543C101.694 142.543 103.248 143.134 104.451 144.203Z" fill="#FF6CA1"/>
<path d="M57.301 86.2817L53.2341 82.2148L49.1673 86.2817L53.2341 90.3486L57.301 86.2817Z" fill="#0574A0"/>
<path d="M102.069 46.1164L97.6912 41.7383L93.3131 46.1164L97.6912 50.4945L102.069 46.1164Z" fill="#0574A0"/>
<path d="M145.163 42.507L140.785 38.1289L136.407 42.507L140.785 46.8851L145.163 42.507Z" fill="#FFF933"/>
<path d="M151.387 89.7231L147.32 85.6562L143.253 89.7231L147.32 93.79L151.387 89.7231Z" fill="#00B75F"/>
<path d="M91.0732 70.7062L86.6951 66.3281L82.317 70.7062L86.6951 75.0843L91.0732 70.7062Z" fill="#FFF933"/>
<path d="M144.733 74.9193C143.704 74.9173 142.699 74.6104 141.844 74.0373C140.99 73.4642 140.324 72.6506 139.932 71.6994C139.54 70.7482 139.438 69.7021 139.64 68.6933C139.842 67.6844 140.339 66.7581 141.067 66.0315C141.796 65.3048 142.723 64.8104 143.733 64.6107C144.742 64.411 145.788 64.515 146.738 64.9095C147.688 65.304 148.5 65.9714 149.071 66.8273C149.642 67.6832 149.947 68.6891 149.946 69.718C149.946 70.4019 149.81 71.079 149.548 71.7106C149.286 72.3421 148.901 72.9158 148.417 73.3988C147.933 73.8819 147.358 74.2648 146.726 74.5256C146.094 74.7865 145.417 74.9203 144.733 74.9193ZM144.733 66.7623C144.149 66.7643 143.579 66.9391 143.095 67.2647C142.611 67.5903 142.234 68.052 142.012 68.5917C141.789 69.1314 141.732 69.7247 141.847 70.2968C141.962 70.869 142.244 71.3943 142.657 71.8064C143.07 72.2185 143.596 72.499 144.169 72.6124C144.741 72.7258 145.334 72.6671 145.873 72.4437C146.412 72.2203 146.873 71.8421 147.198 71.357C147.522 70.8719 147.695 70.3016 147.696 69.718C147.696 69.3292 147.619 68.9443 147.47 68.5852C147.321 68.2261 147.103 67.8999 146.827 67.6253C146.552 67.3508 146.226 67.1332 145.866 66.9851C145.507 66.837 145.121 66.7613 144.733 66.7623Z" fill="#FFF933"/>
<path d="M68.6176 70.2318C67.5884 70.2318 66.5823 69.9266 65.7265 69.3548C64.8708 68.783 64.2038 67.9703 63.8099 67.0194C63.4161 66.0686 63.313 65.0222 63.5138 64.0128C63.7146 63.0034 64.2102 62.0761 64.938 61.3484C65.6657 60.6206 66.593 60.125 67.6024 59.9242C68.6118 59.7234 69.6582 59.8265 70.609 60.2203C71.5599 60.6142 72.3726 61.2812 72.9444 62.1369C73.5162 62.9927 73.8214 63.9988 73.8214 65.028C73.8194 66.4075 73.2705 67.73 72.2951 68.7055C71.3196 69.6809 69.9971 70.2298 68.6176 70.2318ZM68.6176 62.0748C68.0335 62.0748 67.4625 62.248 66.9769 62.5725C66.4912 62.897 66.1127 63.3582 65.8892 63.8979C65.6657 64.4375 65.6072 65.0313 65.7211 65.6042C65.8351 66.177 66.1163 66.7033 66.5294 67.1163C66.9424 67.5293 67.4686 67.8106 68.0415 67.9245C68.6143 68.0385 69.2081 67.98 69.7478 67.7565C70.2874 67.5329 70.7486 67.1544 71.0731 66.6688C71.3977 66.1831 71.5709 65.6121 71.5709 65.028C71.5662 64.2474 71.2532 63.5002 70.7 62.9493C70.1468 62.3984 69.3983 62.0886 68.6176 62.0873V62.0748Z" fill="#0574A0"/>
<path d="M51.5147 56.2905C50.8276 56.291 50.1558 56.0877 49.5843 55.7063C49.0128 55.325 48.5672 54.7827 48.3039 54.1481C48.0407 53.5134 47.9715 52.815 48.1053 52.141C48.239 51.4671 48.5696 50.848 49.0553 50.362C49.5409 49.876 50.1598 49.5449 50.8336 49.4107C51.5075 49.2765 52.206 49.3451 52.8408 49.6079C53.4756 49.8707 54.0182 50.3159 54.4 50.8872C54.7818 51.4584 54.9856 52.13 54.9856 52.8171C54.9849 53.7377 54.6191 54.6204 53.9684 55.2715C53.3177 55.9227 52.4352 56.2892 51.5147 56.2905ZM51.5147 51.5968C51.2726 51.5963 51.0359 51.6677 50.8344 51.8019C50.6329 51.936 50.4758 52.127 50.3829 52.3505C50.2901 52.5741 50.2657 52.8201 50.3128 53.0576C50.3599 53.295 50.4764 53.5131 50.6475 53.6843C50.8187 53.8554 51.0368 53.9719 51.2742 54.019C51.5117 54.0661 51.7578 54.0417 51.9813 53.9489C52.2048 53.856 52.3958 53.6989 52.53 53.4974C52.6641 53.2959 52.7355 53.0592 52.735 52.8171C52.736 52.6561 52.7052 52.4965 52.6443 52.3474C52.5835 52.1984 52.4938 52.0628 52.3804 51.9485C52.267 51.8342 52.1322 51.7434 51.9836 51.6813C51.835 51.6193 51.6757 51.5871 51.5147 51.5868V51.5968Z" fill="#00B75F"/>
<path d="M115.786 72.1186C115.099 72.1186 114.427 71.9149 113.856 71.5332C113.285 71.1516 112.84 70.6091 112.577 69.9744C112.314 69.3398 112.245 68.6414 112.379 67.9676C112.513 67.2939 112.844 66.675 113.33 66.1892C113.815 65.7034 114.434 65.3726 115.108 65.2386C115.782 65.1046 116.48 65.1734 117.115 65.4363C117.749 65.6992 118.292 66.1444 118.674 66.7155C119.055 67.2867 119.259 67.9583 119.259 68.6452C119.258 69.5662 118.892 70.4493 118.241 71.1006C117.59 71.7518 116.707 72.118 115.786 72.1186ZM115.786 67.4249C115.544 67.4249 115.307 67.4967 115.106 67.6312C114.905 67.7657 114.748 67.9568 114.656 68.1804C114.563 68.404 114.539 68.65 114.587 68.8872C114.634 69.1245 114.751 69.3424 114.922 69.5133C115.093 69.6842 115.311 69.8005 115.549 69.8474C115.786 69.8943 116.032 69.8697 116.255 69.7768C116.479 69.6838 116.67 69.5267 116.804 69.3253C116.938 69.1239 117.009 68.8872 117.008 68.6452C117.008 68.3214 116.879 68.011 116.649 67.7822C116.42 67.5534 116.11 67.4249 115.786 67.4249Z" fill="#00B75F"/>
<path d="M81.1794 51.5866C81.0299 51.5868 80.882 51.557 80.7442 51.4991L77.9035 50.3088C77.6301 50.1914 77.4141 49.9708 77.3026 49.6949C77.1912 49.419 77.1932 49.1103 77.3084 48.8359L78.2261 46.6504L75.828 45.6501C75.6917 45.593 75.568 45.5096 75.464 45.4046C75.36 45.2997 75.2776 45.1753 75.2216 45.0385C75.1657 44.9017 75.1372 44.7553 75.1378 44.6075C75.1385 44.4597 75.1682 44.3135 75.2254 44.1772L76.3581 41.4791L74.1601 40.5563C74.0236 40.4995 73.8997 40.4162 73.7955 40.3113C73.6912 40.2064 73.6088 40.082 73.5528 39.9451C73.4968 39.8083 73.4684 39.6617 73.4692 39.5138C73.47 39.366 73.5 39.2197 73.5574 39.0835L74.6427 36.4953L72.2446 35.4951C71.9694 35.3797 71.7513 35.1597 71.6383 34.8835C71.5252 34.6072 71.5266 34.2974 71.642 34.0222C71.7574 33.747 71.9774 33.5289 72.2536 33.4158C72.5298 33.3028 72.8396 33.3042 73.1148 33.4196L76.5507 34.8599C76.825 34.9764 77.0423 35.1965 77.1552 35.4723C77.268 35.7482 77.2674 36.0574 77.1533 36.3328L76.0681 38.9184L78.2661 39.8337C78.4024 39.8908 78.5261 39.9742 78.6301 40.0792C78.7342 40.1841 78.8165 40.3085 78.8725 40.4453C78.9284 40.582 78.9569 40.7285 78.9563 40.8763C78.9556 41.024 78.9259 41.1702 78.8688 41.3065L77.736 44.0047L80.1341 45.005C80.2704 45.0621 80.3941 45.1455 80.4981 45.2505C80.6021 45.3554 80.6845 45.4798 80.7405 45.6166C80.7964 45.7533 80.8249 45.8998 80.8243 46.0476C80.8236 46.1953 80.7939 46.3415 80.7367 46.4778L79.819 48.6634L81.622 49.4136C81.869 49.51 82.0741 49.6906 82.2009 49.9234C82.3278 50.1563 82.3684 50.4265 82.3154 50.6864C82.2625 50.9463 82.1195 51.1791 81.9116 51.3438C81.7038 51.5085 81.4444 51.5945 81.1794 51.5866Z" fill="#00B75F"/>
<path d="M159.779 72.1799C159.494 72.1794 159.22 72.0709 159.013 71.8765C158.805 71.6821 158.678 71.4161 158.659 71.1322L158.409 67.4162C158.389 67.1186 158.487 66.8252 158.683 66.6002C158.879 66.3753 159.156 66.2371 159.454 66.2159L162.252 66.0209L162.084 63.6428C162.064 63.3449 162.163 63.0512 162.359 62.8259C162.555 62.6005 162.832 62.4618 163.13 62.44L166.048 62.2375L165.865 59.6443C165.855 59.4965 165.874 59.3482 165.921 59.2077C165.968 59.0672 166.042 58.9373 166.139 58.8255C166.336 58.5997 166.613 58.4611 166.912 58.4403C167.21 58.4194 167.505 58.5179 167.731 58.7141C167.956 58.9104 168.095 59.1883 168.116 59.4868L168.366 63.2027C168.377 63.35 168.358 63.498 168.311 63.6381C168.264 63.7782 168.191 63.9077 168.094 64.0192C167.997 64.1307 167.879 64.222 167.747 64.2879C167.615 64.3537 167.471 64.3928 167.323 64.403L164.403 64.608L164.57 66.9861C164.581 67.1337 164.562 67.282 164.516 67.4224C164.469 67.5628 164.395 67.6926 164.298 67.8042C164.2 67.9158 164.082 68.007 163.949 68.0726C163.817 68.1383 163.672 68.1769 163.525 68.1864L160.727 68.384L160.909 70.9771C160.929 71.2748 160.83 71.5682 160.634 71.7931C160.438 72.0181 160.161 72.1563 159.864 72.1774L159.779 72.1799Z" fill="#0574A0"/>
<path d="M112.391 54.6109H112.354C112.206 54.6061 112.061 54.5722 111.926 54.5111C111.791 54.45 111.67 54.363 111.569 54.255C111.468 54.147 111.389 54.0202 111.337 53.8817C111.285 53.7433 111.261 53.5959 111.266 53.4481L111.391 49.7247C111.396 49.577 111.43 49.4317 111.491 49.2972C111.552 49.1627 111.639 49.0415 111.747 48.9407C111.855 48.8398 111.982 48.7613 112.12 48.7096C112.259 48.658 112.406 48.6341 112.554 48.6394L115.357 48.7345L115.437 46.3514C115.442 46.2036 115.476 46.0582 115.537 45.9235C115.598 45.7888 115.685 45.6675 115.793 45.5665C115.901 45.4654 116.028 45.3867 116.166 45.3347C116.305 45.2828 116.452 45.2586 116.6 45.2636L119.526 45.3611L119.613 42.763C119.623 42.4645 119.752 42.1824 119.97 41.9786C120.078 41.8777 120.205 41.7991 120.344 41.7473C120.482 41.6954 120.629 41.6714 120.777 41.6764C120.925 41.6815 121.07 41.7157 121.205 41.7769C121.339 41.8382 121.461 41.9254 121.561 42.0334C121.662 42.1415 121.741 42.2684 121.793 42.4069C121.845 42.5454 121.869 42.6927 121.864 42.8405L121.739 46.5614C121.734 46.7093 121.7 46.8549 121.639 46.9897C121.578 47.1245 121.491 47.246 121.383 47.3471C121.275 47.4482 121.148 47.5269 121.01 47.5787C120.871 47.6306 120.724 47.6545 120.576 47.6492L117.653 47.5517L117.57 49.9348C117.56 50.2324 117.432 50.5137 117.214 50.7171C116.997 50.9206 116.707 51.0295 116.41 51.02L113.604 50.9275L113.517 53.5232C113.507 53.8153 113.385 54.0923 113.175 54.2954C112.965 54.4985 112.684 54.6117 112.391 54.6109Z" fill="#FFF933"/>
<path d="M41.0903 69.4768C40.8197 69.4766 40.5584 69.3789 40.354 69.2016C40.1496 69.0243 40.016 68.7794 39.9775 68.5116L39.5624 65.6159L37.2018 65.9559C36.9064 65.9981 36.6064 65.9216 36.3673 65.743C36.1283 65.5644 35.9698 65.2984 35.9265 65.0032L35.5264 62.225L32.9532 62.5901C32.8069 62.6111 32.6579 62.6031 32.5147 62.5665C32.3715 62.53 32.2369 62.4656 32.1186 62.377C31.8797 62.1981 31.7216 61.9316 31.6792 61.6361C31.6367 61.3407 31.7134 61.0404 31.8923 60.8015C32.0712 60.5626 32.3377 60.4045 32.6332 60.362L36.3191 59.8394C36.6148 59.7973 36.9152 59.8742 37.1543 60.0533C37.3934 60.2324 37.5517 60.499 37.5944 60.7947L37.9945 63.5703L40.3551 63.2303C40.6498 63.1893 40.9488 63.2656 41.1878 63.4428C41.3073 63.5324 41.4077 63.6449 41.4833 63.7737C41.5588 63.9025 41.608 64.045 41.6279 64.193L42.0455 67.0912L44.6187 66.7211C44.9072 66.6923 45.1958 66.776 45.4242 66.9548C45.6525 67.1336 45.803 67.3936 45.8443 67.6807C45.8856 67.9677 45.8145 68.2596 45.6457 68.4955C45.477 68.7314 45.2237 68.893 44.9387 68.9467L41.2528 69.4668C41.1989 69.4739 41.1446 69.4772 41.0903 69.4768Z" fill="#FFF933"/>
<path d="M92.9471 126.133C94.6223 126.133 95.9803 124.775 95.9803 123.1C95.9803 121.424 94.6223 120.066 92.9471 120.066C91.2719 120.066 89.9138 121.424 89.9138 123.1C89.9138 124.775 91.2719 126.133 92.9471 126.133Z" fill="#1B1B1B"/>
<path d="M107.227 125.307C108.447 125.307 109.435 124.318 109.435 123.099C109.435 121.879 108.447 120.891 107.227 120.891C106.008 120.891 105.019 121.879 105.019 123.099C105.019 124.318 106.008 125.307 107.227 125.307Z" fill="#1B1B1B"/>
</g>
<defs>
<clipPath id="clip0_44_277">
<rect width="136.697" height="133.333" fill="white" transform="translate(31.668 33.332)"/>
</clipPath>
</defs>
</svg>
