<svg width="200" height="200" viewBox="0 0 200 200" fill="none" xmlns="http://www.w3.org/2000/svg">
<rect width="200" height="200" rx="10" fill="#0C2E16"/>
<g clip-path="url(#clip0_44_361)">
<path d="M126.08 167.001C126.465 167.002 126.847 166.922 127.2 166.767C127.553 166.612 127.87 166.384 128.13 166.1C128.39 165.815 128.588 165.48 128.711 165.114C128.835 164.749 128.88 164.362 128.845 163.978C128.091 156.012 124.394 148.613 118.475 143.228C112.556 137.843 104.842 134.859 96.8404 134.859C88.8387 134.859 81.1246 137.843 75.2059 143.228C69.2873 148.613 65.5896 156.012 64.8356 163.978C64.8007 164.362 64.8463 164.749 64.9694 165.114C65.0926 165.48 65.2906 165.815 65.5509 166.1C65.8111 166.384 66.1279 166.612 66.4809 166.767C66.8339 166.922 67.2154 167.002 67.601 167.001H126.08Z" fill="#00B75F"/>
<path d="M148.621 139.777L146.396 134.195L144.991 134.761L131.368 140.196L129.972 140.753L132.197 146.337C132.329 146.668 132.378 147.026 132.34 147.38C132.301 147.734 132.177 148.073 131.977 148.368C131.777 148.663 131.508 148.904 131.194 149.071C130.879 149.238 130.529 149.325 130.173 149.325H92.0586V167.001H130.185C144.231 167.001 153.837 152.818 148.621 139.777Z" fill="#00B75F"/>
<path d="M113.375 143.84H80.3086V156.996H113.375V143.84Z" fill="#0574A0"/>
<path d="M94.488 155.642L86.6879 142.13C86.4496 141.718 86.3242 141.249 86.3242 140.773C86.3243 140.296 86.4498 139.828 86.6882 139.415C86.9266 139.003 87.2695 138.66 87.6823 138.422C88.0952 138.184 88.5634 138.058 89.04 138.059H104.64C105.117 138.058 105.585 138.184 105.998 138.422C106.411 138.66 106.754 139.003 106.992 139.415C107.231 139.828 107.356 140.296 107.356 140.773C107.356 141.249 107.231 141.718 106.992 142.13L99.1923 155.642C98.9536 156.055 98.6106 156.397 98.1978 156.635C97.7849 156.873 97.3167 156.999 96.8402 156.999C96.3636 156.999 95.8954 156.873 95.4826 156.635C95.0697 156.397 94.7268 156.055 94.488 155.642Z" fill="#FF9D33"/>
<path d="M83.6867 65.3426L111.235 106.9C109.445 108.089 107.438 108.914 105.33 109.327C103.221 109.74 101.052 109.734 98.9457 109.309C96.8395 108.884 94.8376 108.048 93.0544 106.85C91.2713 105.651 89.7417 104.112 88.5531 102.322L79.0696 88.0161C76.6722 84.3996 75.8097 79.9788 76.6718 75.7264C77.5339 71.474 80.0499 67.7382 83.6664 65.3408L83.6867 65.3426Z" fill="#FCFCEE"/>
<path d="M109.777 64.3686L99.868 113.246C95.6205 112.381 91.8897 109.866 89.4948 106.254C87.0999 102.641 86.2366 98.2252 87.0945 93.9764L90.5048 77.1545C91.3668 72.902 93.8829 69.1662 97.4994 66.7689C101.116 64.3715 105.537 63.509 109.789 64.3711L109.777 64.3686Z" fill="#FCFCEE"/>
<path d="M128.766 98.0978L114.46 107.581C110.843 109.979 106.423 110.841 102.17 109.979C97.9179 109.117 94.182 106.601 91.7847 102.984L133.363 75.4225C135.76 79.039 136.623 83.4598 135.761 87.7122C134.899 91.9646 132.383 95.7005 128.766 98.0978Z" fill="#FCFCEE"/>
<path d="M122.5 83.6393L119.089 100.461C118.227 104.714 115.711 108.45 112.095 110.847C108.478 113.244 104.057 114.107 99.805 113.245L109.716 64.355C113.969 65.2171 117.704 67.7331 120.102 71.3496C122.499 74.9661 123.362 79.3869 122.5 83.6393Z" fill="#FCFCEE"/>
<path d="M62.8945 112.336L99.5259 119.762L96.2755 135.796L75.6872 131.622C73.5806 131.196 71.5785 130.36 69.7954 129.16C68.0122 127.96 66.4829 126.421 65.2949 124.63C64.1069 122.839 63.2835 120.831 62.8716 118.722C62.4597 116.612 62.4675 114.442 62.8945 112.336Z" fill="#FCFCEE"/>
<path d="M57.6797 95.0742L94.3017 102.498L91.0513 118.532L70.4631 114.359C66.2106 113.496 62.4748 110.98 60.0775 107.364C57.6801 103.747 56.8176 99.3267 57.6797 95.0742Z" fill="#FCFCEE"/>
<path d="M55.1875 78.3594L91.8096 85.7836L88.5591 101.817L67.9709 97.6437C63.7184 96.7816 59.9826 94.2656 57.5853 90.649C55.1879 87.0325 54.3254 82.6118 55.1875 78.3594Z" fill="#FCFCEE"/>
<path d="M114.911 139.578L94.3233 135.404L97.5737 119.37L134.196 126.794C133.334 131.047 130.818 134.783 127.201 137.18C123.585 139.577 119.164 140.44 114.911 139.578Z" fill="#FCFCEE"/>
<path d="M126.451 125.714L105.859 121.54L109.11 105.506L145.735 112.931C144.873 117.183 142.357 120.919 138.74 123.317C135.124 125.714 130.703 126.576 126.451 125.714Z" fill="#FCFCEE"/>
<path d="M135.255 111.293L114.667 107.119L117.917 91.0849L154.54 98.5091C154.113 100.615 153.275 102.616 152.075 104.398C150.875 106.18 149.336 107.708 147.545 108.895C145.754 110.082 143.747 110.904 141.639 111.316C139.53 111.727 137.361 111.719 135.255 111.293Z" fill="#FCFCEE"/>
<path d="M94.8083 149.615L90.2916 148.7C87.2528 148.083 84.3774 146.835 81.8516 145.037C79.3257 143.238 77.2057 140.93 75.6287 138.26C74.0517 135.59 73.053 132.619 72.6971 129.539C72.3412 126.459 72.6362 123.338 73.5629 120.379L80.2378 99.1177C81.8747 93.8916 85.3902 89.4574 90.1054 86.6719C94.8205 83.8864 100.401 82.9471 105.768 84.0355C111.136 85.1233 115.911 88.1623 119.169 92.5653C122.427 96.9683 123.938 102.423 123.409 107.875L121.263 130.051C120.965 133.139 120.02 136.13 118.492 138.829C116.963 141.528 114.884 143.876 112.39 145.721C109.896 147.566 107.042 148.865 104.013 149.536C100.984 150.207 97.8482 150.234 94.8083 149.615Z" fill="#FFB666"/>
<path d="M95.6099 99.7562L89.2892 98.4748C88.2191 98.2579 87.1758 98.9488 86.9591 100.018C86.7423 101.087 87.4341 102.13 88.5042 102.347L94.8249 103.628C95.8951 103.845 96.9383 103.154 97.1551 102.085C97.3718 101.016 96.68 99.9731 95.6099 99.7562Z" fill="#FCFCEE"/>
<path d="M113.407 103.362L107.086 102.08C106.016 101.863 104.973 102.554 104.756 103.624C104.539 104.693 105.231 105.736 106.301 105.952L112.622 107.234C113.692 107.451 114.735 106.76 114.952 105.691C115.169 104.621 114.477 103.579 113.407 103.362Z" fill="#FCFCEE"/>
<path d="M102.953 129.563L101.259 137.866C101.055 138.884 100.598 139.835 99.9306 140.631C99.0333 141.708 97.8028 142.455 96.4334 142.754C95.0641 143.053 93.6341 142.887 92.3695 142.283C91.105 141.678 90.078 140.669 89.451 139.416C88.824 138.162 88.6327 136.735 88.9074 135.361L90.592 127.059L102.953 129.563Z" fill="#1B1B1B"/>
<path d="M112.383 134.926L79.8261 128.326C80.0649 127.148 80.5335 126.028 81.205 125.031C81.8766 124.034 82.7379 123.179 83.7399 122.514C84.7419 121.85 85.8649 121.39 87.0448 121.16C88.2247 120.929 89.4384 120.934 90.6166 121.173L105.23 124.135C107.609 124.618 109.7 126.025 111.041 128.049C112.383 130.073 112.865 132.546 112.383 134.926Z" fill="#FCFCEE"/>
<path d="M114.383 93.8806L93.9786 89.7441C93.5158 89.6503 93.0646 89.9494 92.9707 90.4122C92.8769 90.875 93.176 91.3262 93.6388 91.4201L114.043 95.5566C114.506 95.6504 114.957 95.3513 115.051 94.8885C115.145 94.4257 114.846 93.9744 114.383 93.8806Z" fill="#FF9D33"/>
<path d="M115.383 98.0472L91.4395 93.1933C90.9767 93.0995 90.5255 93.3986 90.4317 93.8614C90.3379 94.3242 90.637 94.7755 91.0998 94.8693L115.043 99.7232C115.506 99.817 115.957 99.5179 116.051 99.0551C116.145 98.5923 115.846 98.141 115.383 98.0472Z" fill="#FF9D33"/>
<path d="M125.635 107.147C125.978 101.29 124.196 95.5063 120.616 90.858C117.037 86.2096 111.9 83.0091 106.15 81.8444C100.4 80.6796 94.4224 81.629 89.3161 84.5179C84.2098 87.4069 80.3174 92.0415 78.3542 97.5702C76.8822 97.4627 75.4214 97.8942 74.2441 98.7844C73.0668 99.6745 72.2535 100.962 71.9557 102.408L70.2107 111.019C69.8912 112.595 70.211 114.234 71.0998 115.574C71.9886 116.915 73.3735 117.848 74.9499 118.167C76.5263 118.487 78.1651 118.167 79.5057 117.278C80.8463 116.389 81.779 115.004 82.0985 113.428L83.8467 104.817C84.0329 103.885 83.9972 102.922 83.7427 102.006C83.4882 101.09 83.0218 100.247 82.3814 99.5441C83.8902 94.8852 87.0627 90.9457 91.2927 88.4783C95.5227 86.0109 100.514 85.1886 105.312 86.1687C110.11 87.1487 114.378 89.8623 117.302 93.7909C120.225 97.7196 121.599 102.588 121.16 107.465C120.317 107.868 119.579 108.462 119.004 109.199C118.429 109.936 118.033 110.796 117.848 111.712L116.099 120.322C115.84 121.626 116.015 122.979 116.598 124.175C117.181 125.37 118.139 126.341 119.326 126.94L118.674 130.147C118.201 132.465 116.828 134.501 114.857 135.807C112.885 137.114 110.475 137.585 108.156 137.118L107.629 137.01C107.395 136.458 106.991 135.996 106.476 135.69C105.96 135.385 105.361 135.252 104.765 135.312C104.169 135.372 103.608 135.62 103.163 136.022C102.719 136.423 102.414 136.956 102.294 137.543C102.175 138.13 102.246 138.74 102.497 139.284C102.749 139.827 103.168 140.276 103.693 140.564C104.218 140.853 104.821 140.966 105.415 140.887C106.009 140.807 106.562 140.54 106.993 140.125L107.524 140.233C110.669 140.866 113.936 140.227 116.61 138.454C119.284 136.681 121.145 133.92 121.786 130.776L122.437 127.573C123.764 127.482 125.024 126.96 126.026 126.086C127.027 125.211 127.715 124.033 127.984 122.732L129.732 114.121C130.022 112.658 129.765 111.141 129.009 109.855C128.254 108.57 127.054 107.606 125.635 107.147Z" fill="#1B1B1B"/>
<path d="M99.9395 140.629C99.2137 141.508 98.2628 142.173 97.1884 142.553C96.114 142.933 94.9565 143.014 93.8395 142.788C92.7225 142.561 91.6881 142.036 90.8467 141.267C90.0054 140.498 89.3887 139.515 89.0625 138.423C90.8313 137.396 92.9154 137.053 94.9201 137.46C96.9247 137.866 98.7107 138.994 99.9395 140.629Z" fill="#FF6CA1"/>
<path d="M91.1417 105.605L91.1386 105.604C89.4182 105.255 87.7407 106.367 87.3919 108.088L86.6612 111.692C86.3125 113.413 87.4244 115.09 89.1449 115.439L89.148 115.439C90.8685 115.788 92.5459 114.676 92.8947 112.956L93.6254 109.352C93.9742 107.631 92.8622 105.954 91.1417 105.605Z" fill="#1B1B1B"/>
<path d="M110.587 113.274C110.847 111.991 110.018 110.739 108.734 110.479C107.451 110.219 106.199 111.048 105.939 112.332L105.395 115.017C105.134 116.3 105.964 117.552 107.247 117.812C108.531 118.072 109.782 117.243 110.043 115.959L110.587 113.274Z" fill="#1B1B1B"/>
<path opacity="0.42" d="M111.5 125.766C118.143 125.766 123.528 120.381 123.528 113.739C123.528 107.096 118.143 101.711 111.5 101.711C104.858 101.711 99.4727 107.096 99.4727 113.739C99.4727 120.381 104.858 125.766 111.5 125.766Z" fill="#FCFCEE"/>
<path d="M111.525 127.196C111.116 127.196 110.706 127.177 110.294 127.139C106.818 126.817 103.606 125.146 101.345 122.486C99.0839 119.825 97.9538 116.385 98.1964 112.902C98.4389 109.419 100.035 106.169 102.643 103.848C105.25 101.526 108.663 100.317 112.151 100.479C115.639 100.642 118.924 102.162 121.305 104.716C123.687 107.269 124.974 110.653 124.892 114.144C124.81 117.634 123.366 120.954 120.868 123.394C118.37 125.833 115.016 127.198 111.525 127.196ZM111.483 103.141C109.072 103.143 106.734 103.967 104.855 105.477C102.975 106.987 101.666 109.092 101.144 111.445C100.622 113.799 100.917 116.26 101.982 118.423C103.047 120.586 104.817 122.322 107.001 123.343C109.184 124.365 111.651 124.612 113.994 124.043C116.337 123.474 118.416 122.124 119.888 120.214C121.36 118.305 122.137 115.951 122.091 113.541C122.046 111.13 121.18 108.808 119.636 106.955C118.747 105.884 117.655 105 116.422 104.354C115.188 103.708 113.84 103.313 112.453 103.192C112.129 103.154 111.804 103.141 111.483 103.141Z" fill="black"/>
<path d="M131.532 138.725C131.322 138.725 131.115 138.679 130.926 138.59C130.736 138.501 130.569 138.371 130.435 138.21L118.836 124.316C118.716 124.172 118.625 124.006 118.569 123.826C118.513 123.647 118.493 123.458 118.51 123.271C118.526 123.084 118.58 122.902 118.667 122.736C118.754 122.569 118.873 122.422 119.018 122.301C119.162 122.181 119.328 122.09 119.508 122.034C119.687 121.978 119.876 121.958 120.063 121.974C120.25 121.991 120.432 122.045 120.598 122.132C120.765 122.219 120.912 122.338 121.033 122.482L132.631 136.376C132.805 136.585 132.916 136.839 132.95 137.109C132.985 137.379 132.942 137.653 132.826 137.899C132.711 138.145 132.528 138.354 132.299 138.5C132.07 138.646 131.803 138.724 131.532 138.725Z" fill="black"/>
<path d="M132.597 123.484C134.403 122.762 136.423 122.787 138.211 123.554C139.999 124.322 141.409 125.767 142.131 127.574L145.642 136.361L132.014 141.806L128.503 133.019C128.146 132.125 127.968 131.168 127.98 130.204C127.992 129.241 128.194 128.289 128.574 127.404C128.955 126.518 129.505 125.716 130.196 125.044C130.886 124.371 131.702 123.841 132.597 123.484Z" fill="#FFB666"/>
<path d="M146.19 133.116L129.386 139.831C127.57 140.556 126.686 142.617 127.411 144.433C128.137 146.249 130.197 147.133 132.013 146.407L148.817 139.693C150.633 138.967 151.517 136.907 150.792 135.091C150.066 133.275 148.006 132.391 146.19 133.116Z" fill="#0574A0"/>
<path d="M125.717 139.079C125.617 138.828 125.567 138.56 125.571 138.29C125.574 138.02 125.631 137.753 125.737 137.505C125.844 137.256 125.998 137.032 126.191 136.843C126.385 136.655 126.613 136.506 126.864 136.406L131.882 134.401L133.408 138.22L128.402 140.22C128.151 140.323 127.882 140.374 127.611 140.372C127.34 140.37 127.072 140.314 126.822 140.208C126.573 140.102 126.347 139.947 126.157 139.754C125.967 139.56 125.818 139.33 125.717 139.079Z" fill="#FFB666"/>
<path d="M63.6548 69.6299C64.4781 69.6299 65.1455 68.9625 65.1455 68.1392C65.1455 67.3159 64.4781 66.6484 63.6548 66.6484C62.8315 66.6484 62.1641 67.3159 62.1641 68.1392C62.1641 68.9625 62.8315 69.6299 63.6548 69.6299Z" fill="#FCFCEE"/>
<path d="M72.7138 52.6869C72.712 51.2713 72.3794 49.8758 71.7423 48.6116C71.1053 47.3475 70.1816 46.2498 69.0449 45.4062C67.9082 44.5625 66.59 43.9963 65.1955 43.7527C63.8011 43.5091 62.369 43.5948 61.0136 44.0031C59.5336 44.4285 58.1907 45.2338 57.1184 46.339C56.0461 47.4442 55.2817 48.8108 54.9012 50.303C54.4926 51.8244 54.4864 53.4259 54.8831 54.9504C55.2798 56.475 56.066 57.8702 57.1644 58.9995C58.5463 60.4521 59.41 62.3203 59.6214 64.314L59.9138 66.8155C59.9566 67.1799 60.1318 67.5159 60.406 67.7596C60.6803 68.0034 61.0345 68.138 61.4014 68.1378H65.9117C66.2786 68.138 66.6328 68.0034 66.907 67.7596C67.1813 67.5159 67.3564 67.1799 67.3993 66.8155L67.7171 64.19C67.9631 62.2111 68.8442 60.3653 70.2282 58.9295C71.8303 57.2468 72.7208 55.0103 72.7138 52.6869Z" fill="#FFF933"/>
<path d="M67.7188 64.125L67.6998 64.2776L67.401 66.8204C67.3589 67.1845 67.1844 67.5205 66.9107 67.7643C66.637 68.0081 66.2832 68.1428 65.9166 68.1427H61.4031C61.0367 68.1421 60.6833 68.0072 60.4097 67.7635C60.1362 67.5198 59.9615 67.1843 59.9187 66.8204L59.6231 64.3062C59.6231 64.2458 59.6231 64.1854 59.5977 64.125H67.7188Z" fill="#FCFCEE"/>
<path d="M63.654 41.0214C63.5495 41.0218 63.446 41.0016 63.3494 40.9618C63.2528 40.922 63.1651 40.8635 63.0912 40.7896C63.0173 40.7157 62.9588 40.628 62.919 40.5314C62.8792 40.4348 62.859 40.3312 62.8594 40.2268V34.7946C62.8594 34.5839 62.9431 34.3818 63.0921 34.2327C63.2411 34.0837 63.4433 34 63.654 34C63.8648 34 64.0669 34.0837 64.2159 34.2327C64.3649 34.3818 64.4487 34.5839 64.4487 34.7946V40.2268C64.4491 40.3312 64.4288 40.4348 64.389 40.5314C64.3492 40.628 64.2907 40.7157 64.2168 40.7896C64.143 40.8635 64.0552 40.922 63.9586 40.9618C63.862 41.0016 63.7585 41.0218 63.654 41.0214Z" fill="#FFF933"/>
<path d="M72.4413 42.9449C72.2842 42.9445 72.1307 42.8976 72.0003 42.8101C71.8698 42.7225 71.7683 42.5983 71.7084 42.453C71.6485 42.3078 71.6331 42.1481 71.6639 41.994C71.6948 41.84 71.7707 41.6986 71.8819 41.5876L75.7216 37.7448C75.8708 37.5955 76.0732 37.5117 76.2842 37.5117C76.4952 37.5117 76.6976 37.5955 76.8468 37.7448C76.996 37.894 77.0798 38.0963 77.0798 38.3074C77.0798 38.5184 76.996 38.7208 76.8468 38.87L73.0039 42.7128C72.854 42.8609 72.652 42.9442 72.4413 42.9449Z" fill="#FFF933"/>
<path d="M81.519 49.894H76.0837C75.8729 49.894 75.6708 49.8102 75.5218 49.6612C75.3728 49.5122 75.2891 49.3101 75.2891 49.0993C75.2891 48.8886 75.3728 48.6865 75.5218 48.5374C75.6708 48.3884 75.8729 48.3047 76.0837 48.3047H81.519C81.7298 48.3047 81.9319 48.3884 82.0809 48.5374C82.2299 48.6865 82.3137 48.8886 82.3137 49.0993C82.3137 49.3101 82.2299 49.5122 82.0809 49.6612C81.9319 49.8102 81.7298 49.894 81.519 49.894Z" fill="#FFF933"/>
<path d="M54.0207 42.9459C53.81 42.9452 53.608 42.8619 53.4581 42.7138L49.6184 38.871C49.4734 38.7213 49.393 38.5207 49.3946 38.3123C49.3961 38.104 49.4794 37.9045 49.6265 37.757C49.7736 37.6094 49.9728 37.5256 50.1812 37.5235C50.3895 37.5214 50.5904 37.6012 50.7404 37.7458L54.5833 41.5886C54.6573 41.6624 54.716 41.7501 54.7561 41.8467C54.7961 41.9432 54.8168 42.0467 54.8168 42.1512C54.8168 42.2557 54.7961 42.3592 54.7561 42.4558C54.716 42.5523 54.6573 42.64 54.5833 42.7138C54.4334 42.8619 54.2314 42.9452 54.0207 42.9459Z" fill="#FFF933"/>
<path d="M51.2268 49.894H45.7946C45.5839 49.894 45.3818 49.8102 45.2327 49.6612C45.0837 49.5122 45 49.3101 45 49.0993C45 48.8886 45.0837 48.6865 45.2327 48.5374C45.3818 48.3884 45.5839 48.3047 45.7946 48.3047H51.2268C51.4375 48.3047 51.6396 48.3884 51.7887 48.5374C51.9377 48.6865 52.0214 48.8886 52.0214 49.0993C52.0214 49.3101 51.9377 49.5122 51.7887 49.6612C51.6396 49.8102 51.4375 49.894 51.2268 49.894Z" fill="#FFF933"/>
</g>
<defs>
<clipPath id="clip0_44_361">
<rect width="109.542" height="133" fill="white" transform="translate(45 34)"/>
</clipPath>
</defs>
</svg>
