<svg width="32" height="32" viewBox="0 0 32 32" fill="none" xmlns="http://www.w3.org/2000/svg">
<path d="M19.5356 16.0008L27.5213 8.01506C28.5002 7.03618 28.5002 5.45914 27.5213 4.48025C26.5424 3.50137 24.9654 3.50137 23.9865 4.48025L16.0008 12.466L8.01506 4.48025C7.03618 3.50137 5.45914 3.50137 4.48025 4.48025C3.50137 5.45914 3.50137 7.03618 4.48025 8.01506L12.466 16.0008L4.48025 23.9865C3.50137 24.9654 3.50137 26.5424 4.48025 27.5213C5.45914 28.5002 7.03618 28.5002 8.01506 27.5213L16.0008 19.5356L23.9865 27.5213C24.9654 28.5002 26.5424 28.5002 27.5213 27.5213L27.5219 27.5207C28.4934 26.5423 28.4943 24.9595 27.5213 23.9865L19.5356 16.0008Z" fill="#C90000" stroke="#C90000" stroke-width="0.5"/>
</svg>
