<svg width="34" height="34" viewBox="0 0 34 34" fill="none" xmlns="http://www.w3.org/2000/svg">
<path d="M16.9274 33.8591C26.2783 33.8591 33.8588 26.2786 33.8588 16.9276C33.8588 7.57659 26.2783 -0.00390625 16.9274 -0.00390625C7.57651 -0.00390625 -0.00390625 7.57659 -0.00390625 16.9276C-0.00390625 26.2786 7.57651 33.8591 16.9274 33.8591Z" fill="#00B75F"/>
<path d="M14.5259 22.9755C14.1873 22.9755 13.8656 22.8401 13.6286 22.603L8.83701 17.8114C8.346 17.3204 8.346 16.5077 8.83701 16.0167C9.32801 15.5256 10.1407 15.5256 10.6317 16.0167L14.5259 19.9109L23.2286 11.2081C23.7196 10.7171 24.5324 10.7171 25.0234 11.2081C25.5144 11.6991 25.5144 12.5118 25.0234 13.0028L15.4233 22.603C15.1863 22.8401 14.8646 22.9755 14.5259 22.9755Z" fill="white" stroke="white" stroke-width="0.940634"/>
</svg>
