<svg width="32" height="32" viewBox="0 0 32 32" fill="none" xmlns="http://www.w3.org/2000/svg">
<path d="M30 8C30 8.51175 29.8047 9.02375 29.4141 9.41375L13.4141 25.4137C13.025 25.8062 12.5125 26 12 26C11.4875 26 10.9763 25.8047 10.5863 25.4141L2.58625 17.4141C2.19563 17.025 2 16.5125 2 16C2 14.8575 2.93438 14 4 14C4.51175 14 5.02375 14.1953 5.41375 14.5859L12 21.175L26.5875 6.5875C26.975 6.19563 27.4875 6 28 6C29.0688 6 30 6.85625 30 8Z" fill="#00B75F" stroke="#00B75F" stroke-width="1.5"/>
</svg>
