<svg width="26" height="24" viewBox="0 0 26 24" fill="none" xmlns="http://www.w3.org/2000/svg">
<path d="M8.60727 7.71926C8.60727 7.71926 3.84676 8.24654 0.67107 8.59905C0.384837 8.6337 0.131747 8.82503 0.0368377 9.11578C-0.0580713 9.40654 0.0368375 9.70934 0.247746 9.90066C2.60691 12.0534 6.15169 15.2773 6.15169 15.2773C6.14867 15.2773 5.17849 19.967 4.53372 23.096C4.47948 23.3792 4.58192 23.679 4.82899 23.8583C5.07455 24.0376 5.39091 24.0406 5.63948 23.9005C8.41745 22.3217 12.5784 19.9475 12.5784 19.9475C12.5784 19.9475 16.7408 22.3217 19.5143 23.902C19.7674 24.0406 20.0837 24.0376 20.3293 23.8583C20.5763 23.679 20.6788 23.3792 20.623 23.0975C19.9783 19.967 19.0096 15.2773 19.0096 15.2773C19.0096 15.2773 22.5544 12.0534 24.9135 9.90518C25.1244 9.70783 25.2178 9.40503 25.1244 9.11578C25.031 8.82654 24.778 8.63521 24.4917 8.60207C21.316 8.24654 16.554 7.71926 16.554 7.71926C16.554 7.71926 14.5805 3.35345 13.2653 0.442909C13.1418 0.182286 12.8827 0 12.5784 0C12.2741 0 12.0134 0.183792 11.8959 0.442909C10.5793 3.35345 8.60727 7.71926 8.60727 7.71926Z" fill="#FED302"/>
</svg>
