<svg width="138" height="134" viewBox="0 0 138 134" fill="none" xmlns="http://www.w3.org/2000/svg">
<path d="M92.0892 133.665C92.3924 133.665 92.6924 133.602 92.9699 133.48C93.2474 133.358 93.4965 133.179 93.7011 132.956C93.9058 132.732 94.0616 132.468 94.1587 132.181C94.2557 131.893 94.2918 131.589 94.2647 131.287C93.6716 125.02 90.7625 119.199 86.1062 114.963C81.4499 110.727 75.3811 108.379 69.0859 108.379C62.7908 108.379 56.722 110.727 52.0657 114.963C47.4094 119.199 44.5003 125.02 43.9072 131.287C43.8797 131.589 43.9155 131.894 44.0124 132.181C44.1093 132.469 44.2651 132.733 44.4699 132.956C44.6746 133.18 44.9238 133.359 45.2015 133.481C45.4792 133.603 45.7794 133.666 46.0827 133.665H92.0892Z" fill="#00B75F"/>
<path d="M114.69 79.5245L76.4685 117.746L86.3015 127.579L124.523 89.3575L114.69 79.5245Z" fill="#00B75F"/>
<path d="M127.983 76.0654C129.065 77.1478 129.674 78.6157 129.674 80.1464C129.674 81.6771 129.065 83.1451 127.983 84.2275L122.714 89.4967L114.552 81.3347L119.821 76.0654C120.903 74.983 122.371 74.375 123.902 74.375C125.433 74.375 126.901 74.983 127.983 76.0654Z" fill="#FFB666"/>
<path d="M125.235 88.8838L115.169 78.8174C114.081 77.7296 112.317 77.7296 111.229 78.8174C110.141 79.9053 110.141 81.6691 111.229 82.757L121.296 92.8234C122.383 93.9113 124.147 93.9113 125.235 92.8234C126.323 91.7355 126.323 89.9717 125.235 88.8838Z" fill="#0574A0"/>
<path d="M114.585 75.9263C114.735 75.776 114.914 75.6569 115.11 75.5756C115.306 75.4943 115.517 75.4524 115.729 75.4524C115.942 75.4524 116.152 75.4943 116.348 75.5756C116.545 75.6569 116.723 75.776 116.873 75.9263L119.879 78.9322L117.591 81.2203L114.585 78.2143C114.282 77.9109 114.111 77.4994 114.111 77.0703C114.111 76.6412 114.282 76.2297 114.585 75.9263Z" fill="#FFB666"/>
<path d="M13.6493 89.3604L51.8708 127.582L61.7039 117.749L23.4823 79.5274L13.6493 89.3604Z" fill="#00B75F"/>
<path d="M23.6169 81.332L15.4549 89.4941L10.1909 84.2301C9.65386 83.6944 9.22766 83.0582 8.93669 82.3576C8.64572 81.6571 8.4957 80.9061 8.49521 80.1475C8.49472 79.389 8.64376 78.6378 8.93382 77.9369C9.22388 77.236 9.64925 76.5991 10.1856 76.0628C11.268 74.9804 12.736 74.3724 14.2667 74.3724C15.7973 74.3724 17.2653 74.9804 18.3477 76.0628L23.6169 81.332Z" fill="#FFB666"/>
<path d="M16.8776 92.8214L26.944 82.7549C28.0319 81.6671 28.0319 79.9033 26.944 78.8154C25.8562 77.7275 24.0923 77.7275 23.0045 78.8154L12.9381 88.8818C11.8502 89.9697 11.8502 91.7335 12.9381 92.8214C14.0259 93.9092 15.7897 93.9092 16.8776 92.8214Z" fill="#0574A0"/>
<path d="M20.574 81.2266L18.2859 78.9385L21.2919 75.9325C21.5953 75.6291 22.0068 75.4587 22.4359 75.4587C22.865 75.4587 23.2765 75.6291 23.5799 75.9325C23.8833 76.236 24.0538 76.6475 24.0538 77.0766C24.0538 77.5057 23.8833 77.9172 23.5799 78.2206L20.574 81.2266Z" fill="#FFB666"/>
<path d="M82.0958 114.43H56.0818V125.798H82.0958V114.43Z" fill="#0574A0"/>
<path d="M67.2384 124.73L61.1019 114.112C60.9146 113.787 60.8161 113.419 60.8162 113.044C60.8163 112.669 60.915 112.3 61.1025 111.975C61.29 111.651 61.5596 111.381 61.8843 111.193C62.209 111.006 62.5773 110.907 62.9523 110.906H75.2254C75.6004 110.907 75.9688 111.006 76.2935 111.193C76.6182 111.381 76.8878 111.651 77.0753 111.975C77.2627 112.3 77.3615 112.669 77.3616 113.044C77.3617 113.419 77.2632 113.787 77.0759 114.112L70.9368 124.73C70.7494 125.054 70.4798 125.324 70.1552 125.511C69.8306 125.698 69.4624 125.797 69.0876 125.797C68.7128 125.797 68.3446 125.698 68.0201 125.511C67.6955 125.324 67.4259 125.054 67.2384 124.73Z" fill="#FF9D33"/>
<path d="M49.1475 55.6946L76.8906 83.4378C74.4769 85.8515 71.2032 87.2075 67.7897 87.2075C64.3762 87.2075 61.1024 85.8515 58.6887 83.4378L49.1404 73.8894C46.7267 71.4757 45.3706 68.202 45.3706 64.7885C45.3706 61.3749 46.7267 58.1012 49.1404 55.6875L49.1475 55.6946Z" fill="white"/>
<path d="M69.1091 50.8633V90.0981C65.6978 90.0981 62.4259 88.7438 60.0126 86.3328C57.5992 83.9217 56.2417 80.6512 56.2384 77.2399V63.7365C56.2384 60.323 57.5944 57.0493 60.0082 54.6355C62.4219 52.2218 65.6956 50.8658 69.1091 50.8658V50.8633Z" fill="white"/>
<path d="M89.0277 73.8978L79.4794 83.4462C78.2842 84.6413 76.8653 85.5894 75.3038 86.2362C73.7423 86.883 72.0686 87.2159 70.3784 87.2159C68.6882 87.2159 67.0145 86.883 65.453 86.2362C63.8914 85.5894 62.4726 84.6413 61.2774 83.4462L89.0277 55.6959C90.2228 56.8911 91.1709 58.3099 91.8177 59.8715C92.4645 61.433 92.7974 63.1067 92.7974 64.7969C92.7974 66.4871 92.4645 68.1607 91.8177 69.7223C91.1709 71.2838 90.2228 72.7027 89.0277 73.8978Z" fill="white"/>
<path d="M81.9331 63.7354V77.2388C81.9331 80.6523 80.5771 83.926 78.1634 86.3397C75.7496 88.7535 72.4759 90.1095 69.0624 90.1095V50.8672C72.4759 50.8672 75.7496 52.2232 78.1634 54.6369C80.5771 57.0507 81.9331 60.3244 81.9331 63.7379V63.7354Z" fill="white"/>
<path d="M40.4685 95.1797H69.8659V108.05H53.3392C51.649 108.05 49.9754 107.717 48.4138 107.071C46.8523 106.424 45.4334 105.476 44.2383 104.281C43.0431 103.086 42.095 101.667 41.4482 100.105C40.8014 98.5436 40.4685 96.8699 40.4685 95.1797Z" fill="white"/>
<path d="M33.7444 82.6836H63.1393V95.5543H46.6127C43.1991 95.5543 39.9254 94.1983 37.5117 91.7846C35.098 89.3708 33.7419 86.0971 33.7419 82.6836H33.7444Z" fill="white"/>
<path d="M29.2068 70.1914H58.6041V83.0621H42.0775C40.3873 83.0621 38.7136 82.7292 37.1521 82.0824C35.5905 81.4356 34.1717 80.4875 32.9765 79.2924C30.5628 76.8787 29.2068 73.6049 29.2068 70.1914Z" fill="white"/>
<path d="M84.8222 108.051H68.318V95.1801H97.7029C97.7029 96.8711 97.3696 98.5456 96.7222 100.108C96.0748 101.67 95.1258 103.089 93.9296 104.285C92.7334 105.48 91.3133 106.428 89.7506 107.074C88.1879 107.72 86.5132 108.052 84.8222 108.051Z" fill="white"/>
<path d="M91.5587 95.5547H75.0196V82.684H104.429C104.429 86.0975 103.073 89.3712 100.66 91.7849C98.246 94.1987 94.9723 95.5547 91.5587 95.5547Z" fill="white"/>
<path d="M96.0953 83.0586H79.5687V70.1879H108.969C108.969 71.8783 108.636 73.5521 107.989 75.1139C107.342 76.6756 106.393 78.0945 105.198 79.2897C104.002 80.4849 102.583 81.4329 101.021 82.0796C99.4596 82.7262 97.7857 83.0589 96.0953 83.0586Z" fill="white"/>
<path d="M70.9012 118.936H67.2753C64.8357 118.935 62.4234 118.423 60.1945 117.431C57.9656 116.439 55.9699 114.99 54.3365 113.178C52.7031 111.366 51.4685 109.231 50.7126 106.912C49.9567 104.592 49.6964 102.14 49.9485 99.7134L51.7615 82.2791C52.2068 77.9938 54.2243 74.0256 57.4244 71.141C60.6244 68.2564 64.78 66.66 69.0883 66.6602C73.3966 66.66 77.5521 68.2564 80.7522 71.141C83.9523 74.0256 85.9698 77.9938 86.4151 82.2791L88.2281 99.7134C88.4802 102.14 88.2199 104.592 87.464 106.912C86.7081 109.231 85.4735 111.366 83.8401 113.178C82.2067 114.99 80.211 116.439 77.9821 117.431C75.7532 118.423 73.3408 118.935 70.9012 118.936Z" fill="#FFB666"/>
<path d="M64.4844 80.3633H59.4106C58.5516 80.3633 57.8552 81.0591 57.8552 81.9174C57.8552 82.7758 58.5516 83.4716 59.4106 83.4716H64.4844C65.3434 83.4716 66.0398 82.7758 66.0398 81.9174C66.0398 81.0591 65.3434 80.3633 64.4844 80.3633Z" fill="#FCFCEE"/>
<path d="M78.7617 80.3633H73.688C72.8289 80.3633 72.1326 81.0591 72.1326 81.9174C72.1326 82.7758 72.8289 83.4716 73.688 83.4716H78.7617C79.6207 83.4716 80.3171 82.7758 80.3171 81.9174C80.3171 81.0591 79.6207 80.3633 78.7617 80.3633Z" fill="#FCFCEE"/>
<path d="M74.0436 102.199V108.858C74.0441 109.676 73.8404 110.48 73.451 111.199C72.9287 112.171 72.0969 112.941 71.0874 113.387C70.0778 113.833 68.9484 113.929 67.878 113.66C66.8076 113.392 65.8575 112.773 65.1783 111.904C64.4992 111.034 64.1298 109.962 64.1287 108.858V102.199H74.0436Z" fill="#1B1B1B"/>
<path d="M82.156 104.859H56.022C56.022 103.914 56.2083 102.977 56.5702 102.103C56.9321 101.23 57.4626 100.436 58.1313 99.7669C58.8001 99.0982 59.594 98.5677 60.4678 98.2058C61.3415 97.8439 62.278 97.6576 63.2238 97.6576H74.9542C76.8642 97.6576 78.696 98.4163 80.0466 99.7669C81.3972 101.118 82.156 102.949 82.156 104.859Z" fill="#FCFCEE"/>
<path d="M77.2781 72.8984H60.899C60.5275 72.8984 60.2263 73.1996 60.2263 73.5711C60.2263 73.9426 60.5275 74.2438 60.899 74.2438H77.2781C77.6496 74.2438 77.9507 73.9426 77.9507 73.5711C77.9507 73.1996 77.6496 72.8984 77.2781 72.8984Z" fill="#FF9D33"/>
<path d="M78.6969 75.9609H59.4771C59.1056 75.9609 58.8044 76.2621 58.8044 76.6336C58.8044 77.0051 59.1056 77.3063 59.4771 77.3063H78.6969C79.0684 77.3063 79.3696 77.0051 79.3696 76.6336C79.3696 76.2621 79.0684 75.9609 78.6969 75.9609Z" fill="#FF9D33"/>
<path d="M88.0301 81.3684C87.3797 76.799 85.1022 72.6177 81.6162 69.5927C78.1301 66.5678 73.6696 64.9023 69.0541 64.9023C64.4386 64.9023 59.9781 66.5678 56.4921 69.5927C53.0061 72.6177 50.7286 76.799 50.0781 81.3684C48.9262 81.5164 47.8675 82.0783 47.0991 82.9492C46.3308 83.8201 45.9054 84.9407 45.9021 86.1021V93.0138C45.9021 94.2792 46.4048 95.4928 47.2996 96.3875C48.1943 97.2823 49.4079 97.785 50.6733 97.785C51.9387 97.785 53.1523 97.2823 54.047 96.3875C54.9418 95.4928 55.4445 94.2792 55.4445 93.0138V86.1021C55.4427 85.3543 55.265 84.6174 54.9257 83.9511C54.5864 83.2847 54.0951 82.7075 53.4915 82.2661C53.9337 78.4446 55.7666 74.9193 58.6408 72.3622C61.515 69.8051 65.2297 68.395 69.0767 68.4006C72.9238 68.4061 76.6343 69.827 79.5011 72.3924C82.3679 74.9578 84.1906 78.4883 84.6218 82.3111C84.0357 82.7545 83.5602 83.3274 83.2322 83.985C82.9043 84.6427 82.7328 85.3672 82.7313 86.1021V93.0138C82.7347 94.0598 83.0808 95.0759 83.7167 95.9065C84.3526 96.7371 85.2432 97.3363 86.2522 97.6124V100.186C86.2495 102.046 85.5092 103.83 84.1934 105.146C82.8776 106.462 81.0937 107.202 79.2329 107.205H78.8078C78.541 106.816 78.1568 106.524 77.7116 106.369C77.2664 106.215 76.7834 106.207 76.3333 106.346C75.8832 106.486 75.4896 106.766 75.2101 107.146C74.9306 107.525 74.7798 107.984 74.7798 108.455C74.7798 108.926 74.9306 109.385 75.2101 109.765C75.4896 110.144 75.8832 110.424 76.3333 110.564C76.7834 110.704 77.2664 110.696 77.7116 110.541C78.1568 110.387 78.541 110.094 78.8078 109.705H79.2329C81.7569 109.703 84.1768 108.699 85.9616 106.914C87.7463 105.129 88.7502 102.71 88.7528 100.186V97.6199C89.7615 97.3434 90.6519 96.7441 91.2878 95.9136C91.9236 95.0831 92.2699 94.0672 92.2737 93.0213V86.1021C92.2678 84.9305 91.8327 83.8018 91.0507 82.9295C90.2687 82.0571 89.194 81.5017 88.0301 81.3684Z" fill="#1B1B1B"/>
<path d="M73.4507 111.203C73.0285 111.994 72.3993 112.656 71.6303 113.117C70.8613 113.578 69.9814 113.822 69.0846 113.822C68.1878 113.822 67.3079 113.578 66.5389 113.117C65.7699 112.656 65.1407 111.994 64.7185 111.203C65.9215 110.134 67.475 109.543 69.0846 109.543C70.6941 109.543 72.2477 110.134 73.4507 111.203Z" fill="#FF6CA1"/>
<path d="M26.301 53.2817L22.2341 49.2148L18.1673 53.2817L22.2341 57.3486L26.301 53.2817Z" fill="#0574A0"/>
<path d="M71.0692 13.1164L66.6912 8.73828L62.3131 13.1164L66.6912 17.4945L71.0692 13.1164Z" fill="#0574A0"/>
<path d="M114.163 9.50699L109.785 5.12891L105.407 9.50699L109.785 13.8851L114.163 9.50699Z" fill="#FFF933"/>
<path d="M120.387 56.7231L116.32 52.6562L112.253 56.7231L116.32 60.79L120.387 56.7231Z" fill="#00B75F"/>
<path d="M60.0732 37.7062L55.6951 33.3281L51.317 37.7062L55.6951 42.0843L60.0732 37.7062Z" fill="#FFF933"/>
<path d="M113.733 41.9193C112.704 41.9173 111.699 41.6104 110.844 41.0373C109.99 40.4642 109.324 39.6506 108.932 38.6994C108.54 37.7482 108.438 36.7021 108.64 35.6933C108.842 34.6844 109.339 33.7581 110.067 33.0315C110.796 32.3048 111.723 31.8104 112.733 31.6107C113.742 31.411 114.788 31.515 115.738 31.9095C116.688 32.304 117.5 32.9714 118.071 33.8273C118.642 34.6832 118.947 35.6891 118.946 36.718C118.946 37.4019 118.81 38.079 118.548 38.7106C118.286 39.3421 117.901 39.9158 117.417 40.3988C116.933 40.8819 116.358 41.2648 115.726 41.5256C115.094 41.7865 114.417 41.9203 113.733 41.9193ZM113.733 33.7623C113.149 33.7643 112.579 33.9391 112.095 34.2647C111.611 34.5903 111.234 35.052 111.012 35.5917C110.789 36.1314 110.732 36.7247 110.847 37.2968C110.962 37.869 111.244 38.3943 111.657 38.8064C112.07 39.2185 112.596 39.499 113.169 39.6124C113.741 39.7258 114.334 39.6671 114.873 39.4437C115.412 39.2203 115.873 38.8421 116.198 38.357C116.522 37.8719 116.695 37.3016 116.696 36.718C116.696 36.3292 116.619 35.9443 116.47 35.5852C116.321 35.2261 116.103 34.8999 115.827 34.6253C115.552 34.3508 115.226 34.1332 114.866 33.9851C114.507 33.837 114.121 33.7613 113.733 33.7623Z" fill="#FFF933"/>
<path d="M37.6176 37.2318C36.5884 37.2318 35.5823 36.9266 34.7265 36.3548C33.8708 35.783 33.2038 34.9703 32.8099 34.0194C32.4161 33.0686 32.313 32.0222 32.5138 31.0128C32.7146 30.0034 33.2102 29.0761 33.938 28.3484C34.6657 27.6206 35.593 27.125 36.6024 26.9242C37.6118 26.7234 38.6582 26.8265 39.609 27.2203C40.5599 27.6142 41.3726 28.2812 41.9444 29.1369C42.5162 29.9927 42.8214 30.9988 42.8214 32.028C42.8194 33.4075 42.2705 34.73 41.2951 35.7055C40.3196 36.6809 38.9971 37.2298 37.6176 37.2318ZM37.6176 29.0748C37.0335 29.0748 36.4625 29.248 35.9769 29.5725C35.4912 29.897 35.1127 30.3582 34.8892 30.8979C34.6657 31.4375 34.6072 32.0313 34.7211 32.6042C34.8351 33.177 35.1163 33.7033 35.5294 34.1163C35.9424 34.5293 36.4686 34.8106 37.0415 34.9245C37.6143 35.0385 38.2081 34.98 38.7478 34.7565C39.2874 34.5329 39.7486 34.1544 40.0731 33.6688C40.3977 33.1831 40.5709 32.6121 40.5709 32.028C40.5662 31.2474 40.2532 30.5002 39.7 29.9493C39.1468 29.3984 38.3983 29.0886 37.6176 29.0873V29.0748Z" fill="#0574A0"/>
<path d="M20.5147 23.2905C19.8276 23.291 19.1558 23.0877 18.5843 22.7063C18.0128 22.325 17.5672 21.7827 17.3039 21.1481C17.0407 20.5134 16.9715 19.815 17.1053 19.141C17.239 18.4671 17.5696 17.848 18.0553 17.362C18.5409 16.876 19.1598 16.5449 19.8336 16.4107C20.5075 16.2765 21.206 16.3451 21.8408 16.6079C22.4756 16.8707 23.0182 17.3159 23.4 17.8872C23.7818 18.4584 23.9856 19.13 23.9856 19.8171C23.9849 20.7377 23.6191 21.6204 22.9684 22.2715C22.3177 22.9227 21.4352 23.2892 20.5147 23.2905ZM20.5147 18.5968C20.2726 18.5963 20.0359 18.6677 19.8344 18.8019C19.6329 18.936 19.4758 19.127 19.3829 19.3505C19.2901 19.5741 19.2657 19.8201 19.3128 20.0576C19.3599 20.295 19.4764 20.5131 19.6475 20.6843C19.8187 20.8554 20.0368 20.9719 20.2742 21.019C20.5117 21.0661 20.7578 21.0417 20.9813 20.9489C21.2048 20.856 21.3958 20.6989 21.53 20.4974C21.6641 20.2959 21.7355 20.0592 21.735 19.8171C21.736 19.6561 21.7052 19.4965 21.6443 19.3474C21.5835 19.1984 21.4938 19.0628 21.3804 18.9485C21.267 18.8342 21.1322 18.7434 20.9836 18.6813C20.835 18.6193 20.6757 18.5871 20.5147 18.5868V18.5968Z" fill="#00B75F"/>
<path d="M84.7856 39.1186C84.0987 39.1186 83.4271 38.9149 82.8559 38.5332C82.2847 38.1516 81.8395 37.6091 81.5766 36.9744C81.3138 36.3398 81.245 35.6414 81.379 34.9676C81.513 34.2939 81.8438 33.675 82.3296 33.1892C82.8153 32.7034 83.4342 32.3726 84.108 32.2386C84.7818 32.1046 85.4801 32.1734 86.1148 32.4363C86.7495 32.6992 87.292 33.1444 87.6736 33.7155C88.0553 34.2867 88.259 34.9583 88.259 35.6452C88.2583 36.5662 87.8922 37.4493 87.2409 38.1006C86.5897 38.7518 85.7066 39.118 84.7856 39.1186ZM84.7856 34.4249C84.5437 34.4249 84.3072 34.4967 84.106 34.6312C83.9049 34.7657 83.7481 34.9568 83.6557 35.1804C83.5632 35.404 83.5391 35.65 83.5865 35.8872C83.6339 36.1245 83.7506 36.3424 83.9219 36.5133C84.0931 36.6842 84.3112 36.8005 84.5486 36.8474C84.786 36.8943 85.0319 36.8697 85.2553 36.7768C85.4787 36.6838 85.6695 36.5267 85.8036 36.3253C85.9376 36.1239 86.0089 35.8872 86.0084 35.6452C86.0078 35.3214 85.8786 35.011 85.6494 34.7822C85.4202 34.5534 85.1095 34.4249 84.7856 34.4249Z" fill="#00B75F"/>
<path d="M50.1794 18.5866C50.0299 18.5868 49.882 18.557 49.7442 18.4991L46.9035 17.3088C46.6301 17.1914 46.4141 16.9708 46.3026 16.6949C46.1912 16.419 46.1932 16.1103 46.3084 15.8359L47.2261 13.6504L44.828 12.6501C44.6917 12.593 44.568 12.5096 44.464 12.4046C44.36 12.2997 44.2776 12.1753 44.2216 12.0385C44.1657 11.9017 44.1372 11.7553 44.1378 11.6075C44.1385 11.4597 44.1682 11.3135 44.2254 11.1772L45.3581 8.47907L43.1601 7.55634C43.0236 7.49947 42.8997 7.4162 42.7955 7.31131C42.6912 7.20641 42.6088 7.08197 42.5528 6.94511C42.4968 6.80826 42.4684 6.66169 42.4692 6.51383C42.47 6.36596 42.5 6.21971 42.5574 6.08347L43.6427 3.49532L41.2446 2.49507C40.9694 2.37968 40.7513 2.15967 40.6383 1.88345C40.5252 1.60724 40.5266 1.29744 40.642 1.02221C40.7574 0.746976 40.9774 0.528859 41.2536 0.41584C41.5298 0.302821 41.8396 0.304158 42.1148 0.419556L45.5507 1.85992C45.825 1.97637 46.0423 2.19647 46.1552 2.47232C46.268 2.74816 46.2674 3.05742 46.1533 3.33278L45.0681 5.91843L47.2661 6.83366C47.4024 6.8908 47.5261 6.97422 47.6301 7.07916C47.7342 7.1841 47.8165 7.30851 47.8725 7.44528C47.9284 7.58205 47.9569 7.7285 47.9563 7.87627C47.9556 8.02405 47.9259 8.17025 47.8688 8.30653L46.736 11.0047L49.1341 12.005C49.2704 12.0621 49.3941 12.1455 49.4981 12.2505C49.6021 12.3554 49.6845 12.4798 49.7405 12.6166C49.7964 12.7533 49.8249 12.8998 49.8243 13.0476C49.8236 13.1953 49.7939 13.3415 49.7367 13.4778L48.819 15.6634L50.622 16.4136C50.869 16.51 51.0741 16.6906 51.2009 16.9234C51.3278 17.1563 51.3684 17.4265 51.3154 17.6864C51.2625 17.9463 51.1195 18.1791 50.9116 18.3438C50.7038 18.5085 50.4444 18.5945 50.1794 18.5866Z" fill="#00B75F"/>
<path d="M128.779 39.1799C128.494 39.1794 128.22 39.0709 128.013 38.8765C127.805 38.6821 127.678 38.4161 127.659 38.1322L127.409 34.4162C127.389 34.1186 127.487 33.8252 127.683 33.6002C127.879 33.3753 128.156 33.2371 128.454 33.2159L131.252 33.0209L131.084 30.6428C131.064 30.3449 131.163 30.0512 131.359 29.8259C131.555 29.6005 131.832 29.4618 132.13 29.44L135.048 29.2375L134.865 26.6443C134.855 26.4965 134.874 26.3482 134.921 26.2077C134.968 26.0672 135.042 25.9373 135.139 25.8255C135.336 25.5997 135.613 25.4611 135.912 25.4403C136.21 25.4194 136.505 25.5179 136.731 25.7141C136.956 25.9104 137.095 26.1883 137.116 26.4868L137.366 30.2027C137.377 30.35 137.358 30.498 137.311 30.6381C137.264 30.7782 137.191 30.9077 137.094 31.0192C136.997 31.1307 136.879 31.222 136.747 31.2879C136.615 31.3537 136.471 31.3928 136.323 31.403L133.403 31.608L133.57 33.9861C133.581 34.1337 133.562 34.282 133.516 34.4224C133.469 34.5628 133.395 34.6926 133.298 34.8042C133.2 34.9158 133.082 35.007 132.949 35.0726C132.817 35.1383 132.672 35.1769 132.525 35.1864L129.727 35.384L129.909 37.9771C129.929 38.2748 129.83 38.5682 129.634 38.7931C129.438 39.0181 129.161 39.1563 128.864 39.1774L128.779 39.1799Z" fill="#0574A0"/>
<path d="M81.3913 21.6109H81.3538C81.206 21.6061 81.0606 21.5722 80.9259 21.5111C80.7912 21.45 80.6699 21.363 80.5689 21.255C80.4679 21.147 80.3891 21.0202 80.3372 20.8817C80.2852 20.7433 80.261 20.5959 80.266 20.4481L80.3911 16.7247C80.3959 16.577 80.4298 16.4317 80.4909 16.2972C80.552 16.1627 80.6391 16.0415 80.7471 15.9407C80.8552 15.8398 80.982 15.7613 81.1205 15.7096C81.2589 15.658 81.4062 15.6341 81.5538 15.6394L84.357 15.7345L84.4371 13.3514C84.4419 13.2036 84.4758 13.0582 84.5369 12.9235C84.598 12.7888 84.685 12.6675 84.793 12.5665C84.901 12.4654 85.0278 12.3867 85.1663 12.3347C85.3047 12.2828 85.4521 12.2586 85.5999 12.2636L88.5256 12.3611L88.6131 9.76297C88.6234 9.46453 88.7518 9.18239 88.9701 8.97863C89.0782 8.87774 89.2051 8.79912 89.3436 8.74727C89.482 8.69542 89.6294 8.67136 89.7772 8.67645C89.9249 8.68154 90.0703 8.71569 90.2048 8.77694C90.3394 8.83819 90.4606 8.92535 90.5615 9.03344C90.6624 9.14153 90.741 9.26844 90.7929 9.40691C90.8447 9.54539 90.8688 9.69272 90.8637 9.84049L90.7386 13.5614C90.7341 13.7093 90.7004 13.8549 90.6395 13.9897C90.5785 14.1245 90.4915 14.246 90.3834 14.3471C90.2754 14.4482 90.1484 14.5269 90.0098 14.5787C89.8712 14.6306 89.7237 14.6545 89.5758 14.6492L86.6526 14.5517L86.5701 16.9348C86.5597 17.2324 86.4317 17.5137 86.2142 17.7171C85.9967 17.9206 85.7075 18.0295 85.4098 18.02L82.6041 17.9275L82.5166 20.5232C82.5075 20.8153 82.3848 21.0923 82.1747 21.2954C81.9646 21.4985 81.6836 21.6117 81.3913 21.6109Z" fill="#FFF933"/>
<path d="M10.0903 36.4768C9.81974 36.4766 9.55835 36.3789 9.35399 36.2016C9.14963 36.0243 9.01597 35.7794 8.97749 35.5116L8.56239 32.6159L6.2018 32.9559C5.90643 32.9981 5.60638 32.9216 5.36735 32.743C5.12832 32.5644 4.96979 32.2984 4.92648 32.0032L4.52638 29.225L1.95323 29.5901C1.80694 29.6111 1.65793 29.6031 1.51473 29.5665C1.37153 29.53 1.23693 29.4656 1.11862 29.377C0.879689 29.1981 0.721611 28.9316 0.679166 28.6361C0.636721 28.3407 0.713385 28.0404 0.892292 27.8015C1.0712 27.5626 1.3377 27.4045 1.63315 27.362L5.31908 26.8394C5.61482 26.7973 5.91521 26.8742 6.1543 27.0533C6.3934 27.2324 6.55168 27.499 6.59439 27.7947L6.99449 30.5703L9.35509 30.2303C9.64978 30.1893 9.9488 30.2656 10.1878 30.4428C10.3073 30.5324 10.4077 30.6449 10.4833 30.7737C10.5588 30.9025 10.608 31.045 10.6279 31.193L11.0455 34.0912L13.6187 33.7211C13.9072 33.6923 14.1958 33.776 14.4242 33.9548C14.6525 34.1336 14.803 34.3936 14.8443 34.6807C14.8856 34.9677 14.8145 35.2596 14.6457 35.4955C14.477 35.7314 14.2237 35.893 13.9387 35.9467L10.2528 36.4668C10.1989 36.4739 10.1446 36.4772 10.0903 36.4768Z" fill="#FFF933"/>
<path d="M61.9471 93.1329C63.6223 93.1329 64.9803 91.7749 64.9803 90.0997C64.9803 88.4244 63.6223 87.0664 61.9471 87.0664C60.2719 87.0664 58.9138 88.4244 58.9138 90.0997C58.9138 91.7749 60.2719 93.1329 61.9471 93.1329Z" fill="#1B1B1B"/>
<path d="M76.2273 92.3067C77.4468 92.3067 78.4354 91.3182 78.4354 90.0987C78.4354 88.8792 77.4468 87.8906 76.2273 87.8906C75.0079 87.8906 74.0193 88.8792 74.0193 90.0987C74.0193 91.3182 75.0079 92.3067 76.2273 92.3067Z" fill="#1B1B1B"/>
</svg>
