<svg width="35" height="35" viewBox="0 0 35 35" fill="none" xmlns="http://www.w3.org/2000/svg">
<path d="M17.5995 34.7574C26.9505 34.7574 34.531 27.1769 34.531 17.8259C34.531 8.4749 26.9505 0.894409 17.5995 0.894409C8.24846 0.894409 0.667969 8.4749 0.667969 17.8259C0.667969 27.1769 8.24846 34.7574 17.5995 34.7574Z" fill="#00B75F"/>
<path d="M15.1901 23.8894C14.8514 23.8894 14.5297 23.754 14.2927 23.517L9.50107 18.7253C9.01006 18.2343 9.01006 17.4216 9.50107 16.9306C9.99209 16.4396 10.8048 16.4396 11.2958 16.9306L15.1901 20.8248L23.8929 12.122C24.3839 11.631 25.1966 11.631 25.6876 12.122C26.1786 12.6131 26.1786 13.4258 25.6876 13.9168L16.0874 23.517C15.8504 23.754 15.5287 23.8894 15.1901 23.8894Z" fill="white" stroke="white" stroke-width="0.940639"/>
</svg>
