<svg width="28" height="28" viewBox="0 0 28 28" fill="none" xmlns="http://www.w3.org/2000/svg">
<path d="M13.9574 11.1211C12.229 11.1211 10.7969 12.5285 10.7969 14.2816C10.7969 16.0347 12.2043 17.4421 13.9574 17.4421C15.7105 17.4421 17.1179 16.01 17.1179 14.2816C17.1179 12.5532 15.6858 11.1211 13.9574 11.1211ZM13.9574 16.3063C12.8463 16.3063 11.9327 15.3927 11.9327 14.2816C11.9327 13.1705 12.8463 12.2569 13.9574 12.2569C15.0685 12.2569 15.9821 13.1705 15.9821 14.2816C15.9821 15.3927 15.0685 16.3063 13.9574 16.3063Z" fill="#D2D2D2"/>
<path d="M17.2395 11.7641C17.635 11.7641 17.9555 11.4435 17.9555 11.0481C17.9555 10.6526 17.635 10.332 17.2395 10.332C16.844 10.332 16.5234 10.6526 16.5234 11.0481C16.5234 11.4435 16.844 11.7641 17.2395 11.7641Z" fill="#D2D2D2"/>
<path d="M19.0952 9.19594C18.4532 8.52927 17.5396 8.18359 16.5026 8.18359H11.4162C9.26804 8.18359 7.83594 9.61569 7.83594 11.7638V16.8256C7.83594 17.8873 8.18162 18.8009 8.87297 19.4675C9.53964 20.1095 10.4285 20.4305 11.4409 20.4305H16.4779C17.5396 20.4305 18.4285 20.0848 19.0705 19.4675C19.7372 18.8256 20.0829 17.912 20.0829 16.8503V11.7638C20.0829 10.7268 19.7372 9.83791 19.0952 9.19594ZM18.9964 16.8503C18.9964 17.6157 18.7248 18.233 18.2804 18.6527C17.8359 19.0725 17.2187 19.2947 16.4779 19.2947H11.4409C10.7001 19.2947 10.0829 19.0725 9.63841 18.6527C9.19396 18.2083 8.97174 17.591 8.97174 16.8256V11.7638C8.97174 11.0231 9.19396 10.4058 9.63841 9.96137C10.0582 9.54162 10.7001 9.3194 11.4409 9.3194H16.5273C17.268 9.3194 17.8853 9.54162 18.3298 9.98606C18.7495 10.4305 18.9964 11.0478 18.9964 11.7638V16.8503Z" fill="#D2D2D2"/>
<path d="M14 27.5625C21.4904 27.5625 27.5625 21.4904 27.5625 14C27.5625 6.50964 21.4904 0.4375 14 0.4375C6.50964 0.4375 0.4375 6.50964 0.4375 14C0.4375 21.4904 6.50964 27.5625 14 27.5625Z" stroke="#D2D2D2" stroke-width="0.875"/>
</svg>
