<svg width="48" height="44" viewBox="0 0 48 44" fill="none" xmlns="http://www.w3.org/2000/svg">
<rect width="48" height="44" rx="2.75" fill="#597FE8"/>
<path d="M14.5771 32.375H10.71L17.751 12.375H22.2236L29.2744 32.375H25.4072L20.0654 16.4766H19.9092L14.5771 32.375ZM14.7041 24.5332H25.251V27.4434H14.7041V24.5332ZM31.8599 32.375V17.375H35.395V32.375H31.8599ZM33.6372 15.2461C33.0773 15.2461 32.5955 15.0605 32.1919 14.6895C31.7882 14.3118 31.5864 13.8594 31.5864 13.332C31.5864 12.7982 31.7882 12.3457 32.1919 11.9746C32.5955 11.597 33.0773 11.4082 33.6372 11.4082C34.2036 11.4082 34.6854 11.597 35.0825 11.9746C35.4862 12.3457 35.688 12.7982 35.688 13.332C35.688 13.8594 35.4862 14.3118 35.0825 14.6895C34.6854 15.0605 34.2036 15.2461 33.6372 15.2461Z" fill="white"/>
</svg>
